<svg width="107" height="41" viewBox="0 0 107 41" fill="none" xmlns="http://www.w3.org/2000/svg">
<path fill-rule="evenodd" clip-rule="evenodd" d="M11.2139 13.3289L28.4101 0.280969C28.5771 0.12718 28.7884 0.030974 29.0134 0.00630353C29.2384 -0.018367 29.4653 0.0297745 29.6613 0.14376C29.8572 0.257745 30.012 0.431649 30.1032 0.640222C30.1944 0.848795 30.2172 1.08119 30.1684 1.30372L27.5444 22.8243C27.4482 24.8361 26.097 24.7842 25.531 24.0003C24.6921 22.0066 22.9025 19.9453 20.4485 18.3143C20.8167 18.3356 21.1843 18.2636 21.5178 18.1048C25.0679 16.1427 23.6273 13.1487 24.1396 9.72453C21.4551 11.8804 18.1555 12.126 18.245 16.2012C18.2741 16.5614 18.3909 16.9088 18.585 17.2127L18.6029 17.242C15.99 15.9286 13.3324 15.406 11.2072 15.6651C10.2431 15.5704 9.53168 14.4193 11.2139 13.3289Z" fill="white"/>
<path fill-rule="evenodd" clip-rule="evenodd" d="M7.1552 19.0508C2.47307 22.3399 -0.810904 27.2644 0.175632 28.4403C1.37469 29.8618 1.90487 27.9064 3.54238 29.792C5.1799 31.6775 3.37237 36.6652 7.27377 39.1882C11.3966 41.3306 14.7768 37.2621 17.2219 37.7442C19.667 38.2263 18.2509 39.6681 20.0719 39.997C21.5707 40.2718 24.1634 34.9463 24.6533 29.2198C25.0157 24.9733 22.9621 21.9704 19.5999 19.7582C19.9175 20.5151 19.7408 22.0493 17.5194 25.514C14.4189 30.3529 11.9917 32.2723 11.428 31.9344C10.8642 31.5964 11.2937 28.5349 13.9044 23.4122C15.7745 19.7424 17.0027 18.821 17.8147 18.7197C14.2354 16.9017 10.6249 16.6111 7.1552 19.0508Z" fill="white"/>
<path d="M102.099 31.9028C100.205 31.9028 99.2577 31.0617 99.2577 29.3797C99.2577 28.7692 99.4232 27.8028 99.7565 26.4511C100.09 25.0994 100.255 24.1983 100.255 23.6779C100.255 22.9143 99.9892 22.5313 99.4523 22.5313C98.9154 22.5313 98.4411 22.9593 98.0206 23.8086C97.8948 24.0605 97.7929 24.3237 97.7163 24.5948L96.2108 31.7676H93.0141L94.6382 24.0497C94.6836 23.867 94.7062 23.6793 94.7053 23.491C94.7053 22.8399 94.4816 22.511 94.0498 22.511C93.8278 22.5141 93.6098 22.5718 93.4149 22.679C93.22 22.7861 93.054 22.9396 92.9313 23.126C92.6092 23.5675 92.3717 24.0656 92.2311 24.5948L90.7256 31.7676H87.5266L89.0299 24.6309C88.4297 24.8616 87.8075 25.0292 87.1731 25.131C86.9987 27.169 86.4163 28.7985 85.426 30.0195C84.4357 31.2405 83.2501 31.8517 81.8691 31.8532C80.163 31.8532 79.0639 31.2209 78.5717 29.9564C78.4788 29.718 78.4113 29.4703 78.3704 29.2175C76.9163 31.0047 75.2191 31.8983 73.2789 31.8983C72.2245 31.8983 71.3833 31.6234 70.7555 31.0738C70.3988 30.7494 70.1405 30.33 70.0106 29.864C69.0725 31.2157 67.8212 31.8915 66.2568 31.8915C65.6733 31.8918 65.1122 31.665 64.6909 31.2585C64.3297 30.8957 64.1044 30.418 64.0533 29.9068C63.1197 31.233 61.8789 31.896 60.3309 31.896C59.7473 31.8964 59.1863 31.6695 58.7649 31.263C58.4271 30.9274 58.2092 30.4885 58.1453 30.015C57.3295 31.2705 56.3146 31.8983 55.1007 31.8983C54.176 31.8983 53.4781 31.6783 53.0068 31.2382C52.537 30.7877 52.3043 30.1682 52.3043 29.3572C52.3104 28.9642 52.3539 28.5726 52.4341 28.188L52.6198 27.3162C52.6733 27.0461 52.7018 26.7716 52.7048 26.4962C52.7048 25.7775 52.4386 25.4148 51.9062 25.4148C51.4834 25.4148 50.9398 25.6897 50.2664 26.2461L49.1076 31.7676H45.8952L49.1188 16.5615L52.4005 16.1109L50.7339 23.9888L55.0157 20.5939H57.2214L52.7808 23.7095C53.0212 23.6463 53.2684 23.6137 53.5168 23.6126C54.3341 23.6126 54.9448 23.8709 55.349 24.3876C55.7583 24.9127 55.9727 25.5652 55.9552 26.2326C55.9522 26.5177 55.9238 26.8019 55.8702 27.0819L55.6196 28.197C55.5589 28.4321 55.5229 28.6729 55.5123 28.9156C55.5123 29.4698 55.812 29.7469 56.4071 29.7469C57.0021 29.7469 57.4988 29.3549 57.8835 28.5687C57.9976 28.3254 58.1072 28.0618 58.2392 27.7712L59.5814 21.4928H58.8455L59.0311 20.5917H59.7559L60.4271 17.5031L63.7133 17.0526L62.9504 20.5894H64.2927L64.1182 21.4905H62.7759L61.3554 28.1947C61.2968 28.4565 61.2668 28.7239 61.2659 28.9922C61.2659 29.4946 61.5657 29.7446 62.1608 29.7446C62.3894 29.738 62.6142 29.6844 62.8216 29.5872C63.0289 29.49 63.2144 29.3511 63.3665 29.1792C63.7475 28.7861 64.0224 28.3014 64.1652 27.7712L65.6707 20.5984H68.8764L67.2881 28.1902C67.2295 28.452 67.1995 28.7194 67.1986 28.9877C67.1986 29.4901 67.4983 29.7401 68.0934 29.7401C68.322 29.7335 68.5469 29.6799 68.7542 29.5827C68.9616 29.4855 69.147 29.3466 69.2992 29.1747C69.4996 28.9708 69.6705 28.7395 69.807 28.4876C69.807 28.4448 69.807 28.3997 69.807 28.3547C69.8128 26.6191 70.257 24.9136 71.0978 23.3986C71.6826 22.2603 72.6271 21.3504 73.7822 20.8124C74.3467 20.5384 74.9653 20.396 75.592 20.3957C77.3712 20.3957 78.2608 21.0715 78.2608 22.4232C78.2608 22.9931 78.1467 23.4076 77.914 23.6757C77.8215 23.7965 77.7035 23.8949 77.5684 23.9639C77.4333 24.0329 77.2847 24.0706 77.1333 24.0744C76.8361 24.0713 76.5465 23.9796 76.3011 23.8109C76.47 23.391 76.5617 22.9437 76.5718 22.4908C76.5718 21.8795 76.3608 21.5739 75.9387 21.5739C75.5137 21.5739 75.0685 21.9569 74.5965 22.7295C73.8677 23.9799 73.396 25.365 73.2095 26.8025C73.1336 27.3344 73.0977 27.8714 73.1021 28.4087C73.1021 29.4856 73.61 30.0217 74.63 30.0217C75.3872 30.0481 76.1352 29.8482 76.7798 29.4473C77.3455 29.0596 77.8636 28.6059 78.3234 28.0956C78.3402 27.672 78.3835 27.2499 78.4531 26.8318C78.5497 26.2485 78.6918 25.6737 78.8782 25.113C79.2516 23.8935 79.9098 22.7819 80.7976 21.8712C81.2663 21.391 81.8271 21.0115 82.4458 20.7559C83.0645 20.5004 83.7283 20.374 84.397 20.3844C86.2955 20.3844 87.2455 21.5746 87.247 23.955V23.9776C87.3691 23.9959 87.4926 24.0034 87.6161 24.0001C88.146 23.9693 88.6657 23.8394 89.1485 23.6171L89.2514 23.5743L89.8822 20.5939H93.0789L92.8418 21.7518C93.1711 21.3507 93.5852 21.0289 94.0539 20.8098C94.5227 20.5908 95.0341 20.4801 95.5509 20.4858C96.8603 20.4858 97.6201 21.1256 97.8304 22.4051C98.6447 21.1376 99.6745 20.5053 100.92 20.5083C101.556 20.4852 102.178 20.694 102.674 21.0963C103.143 21.4883 103.381 22.065 103.381 22.8219C103.362 23.7069 103.238 24.5866 103.011 25.4419L102.49 27.6248C102.389 28.0021 102.332 28.3899 102.32 28.7805C102.32 29.4217 102.59 29.7424 103.13 29.7424C103.345 29.7557 103.561 29.7194 103.76 29.6363C103.959 29.5531 104.137 29.4253 104.28 29.2626C104.618 28.8084 104.885 28.3047 105.072 27.769H106.005C105.453 29.412 104.759 30.5661 103.922 31.2315C103.409 31.6588 102.767 31.8972 102.101 31.9073L102.099 31.9028ZM36.6585 31.0017C37.1059 28.5266 37.9955 25.8076 39.3273 22.8444C40.3559 22.9422 41.3606 23.2157 42.2981 23.6532L40.5957 31.7631H43.7991L47.2777 15.318C46.7246 15.0795 46.1248 14.9709 45.5239 15.0003C44.2726 15.0003 42.9736 15.6236 41.6269 16.8701C40.153 18.2722 38.8677 19.8627 37.8038 21.6009C37.3273 21.5559 36.9381 21.5333 36.6428 21.5333C35.3587 21.5333 34.2783 21.8029 33.4013 22.3421C32.5244 22.8812 32.0949 23.536 32.1128 24.3065C32.1041 24.4813 32.1341 24.6559 32.2007 24.8175C32.2672 24.9792 32.3686 25.124 32.4976 25.2414C32.8154 25.4912 33.214 25.6132 33.6161 25.5838C33.8874 25.5847 34.1531 25.5064 34.3812 25.3585C34.485 25.3045 34.5731 25.2242 34.6367 25.1254C34.7002 25.0266 34.7371 24.9129 34.7436 24.7953C34.7491 24.6063 34.7148 24.4181 34.6429 24.2434C34.5803 24.0947 34.5131 24.0181 34.4505 24.0181C34.5305 23.8218 34.6519 23.6453 34.8065 23.5009C34.961 23.3566 35.1449 23.2479 35.3453 23.1823C35.896 22.9899 36.472 22.8805 37.0544 22.8579C36.569 23.7117 36.1261 24.5723 35.7122 25.4486C34.4281 28.2435 33.7854 30.4122 33.7839 31.9546C33.7839 32.9728 34.1575 33.6735 34.9024 34.0497C35.2536 34.2321 35.8688 34.3245 36.7457 34.3245C36.5168 33.941 36.4106 33.4958 36.4415 33.0494C36.4565 32.3683 36.5314 31.6898 36.6652 31.022L36.6585 31.0017ZM39.7903 21.887C41.1862 19.047 42.5225 17.2809 43.7991 16.5885L42.5083 22.671C41.6317 22.3269 40.7246 22.0674 39.7993 21.896L39.7903 21.887ZM69.6549 17.6068C69.659 17.3712 69.6151 17.1373 69.5258 16.9195C69.4365 16.7017 69.3038 16.5047 69.1359 16.3407C68.9711 16.1716 68.7738 16.0381 68.5562 15.9483C68.3385 15.8584 68.1049 15.8141 67.8697 15.8181C67.637 15.8128 67.4058 15.8572 67.1914 15.9485C66.977 16.0397 66.7843 16.1757 66.6259 16.3475C66.4609 16.5156 66.3314 16.7157 66.2453 16.9356C66.1592 17.1555 66.1182 17.3907 66.1248 17.627C66.1242 17.8584 66.1691 18.0877 66.2568 18.3016C66.3445 18.5154 66.4734 18.7097 66.636 18.8732C66.7986 19.0368 66.9917 19.1663 67.2042 19.2544C67.4167 19.3425 67.6444 19.3873 67.8742 19.3864C68.1066 19.3897 68.3373 19.3466 68.5531 19.2596C68.7689 19.1726 68.9654 19.0435 69.1314 18.8796C69.3016 18.7198 69.4364 18.5257 69.527 18.3098C69.6176 18.094 69.6619 17.8613 69.6571 17.627L69.6549 17.6068ZM85.3253 25.1828C84.9249 25.0814 84.7258 24.7503 84.7258 24.1916C84.7072 23.9496 84.7643 23.7078 84.8891 23.5002C85.0139 23.2925 85.2 23.1294 85.4215 23.0337C85.4222 22.6869 85.3458 22.3443 85.1978 22.0312C85.0793 21.8329 84.8466 21.7361 84.4976 21.7361C83.8265 21.7361 83.1688 22.4885 82.5469 23.9888C81.925 25.4892 81.6141 26.8431 81.6141 28.0123C81.6141 28.7309 81.6767 29.1905 81.8065 29.3842C81.9036 29.546 82.0482 29.6735 82.2203 29.7491C82.4095 29.8062 82.6068 29.8313 82.8042 29.8235C83.312 29.8235 83.8109 29.3729 84.3097 28.4718C84.8497 27.4546 85.195 26.3442 85.3276 25.1986L85.3253 25.1828Z" fill="white"/>
<path d="M48.6973 37.6113V34.748H49.1447C49.3355 34.7414 49.5264 34.7588 49.7129 34.7999C49.8711 34.8383 50.013 34.9267 50.1178 35.0522C50.2172 35.1756 50.2703 35.3303 50.2677 35.4892C50.2686 35.5918 50.2448 35.6931 50.1983 35.7843C50.1435 35.8836 50.067 35.9691 49.9746 36.0344C50.1263 36.0995 50.2571 36.2055 50.3527 36.3408C50.4348 36.4704 50.4768 36.6218 50.4735 36.7755C50.4774 36.9346 50.4346 37.0914 50.3504 37.2261C50.2741 37.353 50.1641 37.456 50.0328 37.5235C49.8628 37.5972 49.6785 37.6311 49.4937 37.6226L48.6973 37.6113ZM49.2386 35.2707V35.8744H49.355C49.4593 35.882 49.563 35.8525 49.648 35.7911C49.6796 35.7631 49.7047 35.7283 49.7213 35.6893C49.7379 35.6504 49.7457 35.6082 49.7442 35.5658C49.7461 35.5255 49.7388 35.4852 49.7229 35.4481C49.707 35.411 49.6829 35.3781 49.6525 35.3518C49.573 35.2934 49.4754 35.2655 49.3773 35.2729L49.2386 35.2707ZM49.2386 36.3588V37.0932H49.3729C49.527 37.107 49.6819 37.0773 49.8203 37.0076C49.8589 36.979 49.8898 36.9412 49.9101 36.8975C49.9304 36.8538 49.9395 36.8057 49.9366 36.7575C49.939 36.7012 49.9278 36.6452 49.9041 36.5942C49.8803 36.5432 49.8446 36.4988 49.8001 36.4646C49.6655 36.3836 49.5091 36.3466 49.3527 36.3588H49.2386ZM52.4935 34.748H53.0416L54.1333 37.6091H53.574L53.3503 37.0188H52.1915L51.9678 37.6091H51.4041L52.498 34.748H52.4935ZM52.7709 35.5072L52.3929 36.4894H53.149L52.7732 35.5072H52.7709ZM56.4397 36.3385L56.3636 36.2574L55.565 37.6091H54.923L55.9721 35.9555L55.0214 34.748H55.6724L56.4419 35.7708V34.748H56.9967V35.7708L57.7573 34.748H58.4105L57.4575 35.9533L58.5067 37.6068H57.8647L57.066 36.2551L56.99 36.3362V37.6068H56.4419V36.3362L56.4397 36.3385ZM59.5268 34.748H61.0771V35.2819H60.0637V35.7978H61.0771V36.325H60.0637V37.0774H61.0771V37.6113H59.5268V34.748ZM62.2112 34.748H62.7593V35.8271H63.7078V34.748H64.2537V37.6091H63.7078V36.3543H62.7683V37.6091H62.2202V34.748H62.2112ZM67.7524 34.748H68.3251C68.5522 34.7363 68.7796 34.7661 68.9962 34.8359C69.1316 34.891 69.2455 34.9891 69.3206 35.1152C69.4028 35.2556 69.4439 35.4165 69.4391 35.5793C69.4453 35.7585 69.39 35.9343 69.2825 36.0772C69.1748 36.2129 69.0266 36.31 68.8597 36.3543C68.672 36.392 68.4805 36.4071 68.2893 36.3993V37.6113H67.7479V34.748H67.7524ZM68.2938 35.8744H68.466C68.5609 35.8791 68.6559 35.8692 68.7479 35.8451C68.7988 35.8272 68.8427 35.7932 68.8732 35.7483C68.9041 35.7001 68.9198 35.6435 68.9179 35.5861C68.921 35.5379 68.9108 35.4898 68.8882 35.4472C68.8657 35.4047 68.8318 35.3693 68.7904 35.345C68.6818 35.2984 68.5635 35.279 68.4459 35.2887H68.2938V35.8744ZM70.6091 34.748H72.1594V35.2819H71.146V35.7978H72.1594V36.325H71.146V37.0774H72.1594V37.6113H70.6091V34.748ZM73.4367 36.8634C73.4887 36.9517 73.5618 37.0256 73.6493 37.0783C73.7368 37.131 73.836 37.1609 73.9378 37.1653C74.0506 37.1697 74.1608 37.1311 74.2465 37.0571C74.2856 37.02 74.3163 36.9749 74.3364 36.9247C74.3565 36.8745 74.3655 36.8206 74.3629 36.7665C74.3644 36.7125 74.3551 36.6587 74.3355 36.6083C74.3159 36.558 74.2864 36.5122 74.2488 36.4737C74.1094 36.3775 73.94 36.3358 73.7723 36.3565H73.656V35.8744H73.7745C73.8918 35.8831 74.0081 35.8478 74.1011 35.7753C74.1377 35.7419 74.1665 35.7007 74.1854 35.6547C74.2044 35.6088 74.213 35.5592 74.2107 35.5095C74.2129 35.4646 74.2057 35.4197 74.1895 35.3777C74.1733 35.3358 74.1485 35.2978 74.1168 35.2662C74.0838 35.2354 74.045 35.2116 74.0028 35.1961C73.9605 35.1807 73.9156 35.1738 73.8707 35.1761C73.7286 35.1861 73.5957 35.2506 73.4994 35.3563L73.1817 34.9981C73.3024 34.8739 73.4492 34.7785 73.6112 34.7188C73.714 34.6902 73.82 34.675 73.9266 34.6737C74.1396 34.6675 74.3475 34.7405 74.5105 34.8787C74.5887 34.9463 74.6506 35.0309 74.6917 35.1261C74.7328 35.2213 74.7519 35.3247 74.7476 35.4284C74.7476 35.5307 74.7294 35.6321 74.6939 35.728C74.6277 35.8585 74.524 35.9661 74.3964 36.0366C74.549 36.0945 74.6795 36.1996 74.7691 36.3368C74.8587 36.474 74.9029 36.6363 74.8953 36.8003C74.9002 36.9204 74.8789 37.0402 74.8329 37.1511C74.7869 37.262 74.7173 37.3614 74.6291 37.4424C74.4436 37.6051 74.2038 37.6912 73.958 37.6834C73.7955 37.686 73.6344 37.653 73.4859 37.5865C73.3073 37.4846 73.1542 37.3428 73.0385 37.172L73.4524 36.8656L73.4367 36.8634ZM76.846 36.9558L75.8393 34.748H76.459L77.1301 36.343L77.6782 34.748H78.2352L77.4791 36.7936C77.4013 37.0609 77.2556 37.3032 77.0563 37.4964C76.9183 37.6095 76.7464 37.6722 76.5686 37.6744C76.4165 37.6675 76.268 37.6265 76.1337 37.5544C75.9994 37.4823 75.8827 37.3809 75.7923 37.2576L76.148 36.8972C76.1959 36.9664 76.2581 37.0244 76.3303 37.0671C76.4025 37.1099 76.483 37.1365 76.5663 37.145C76.6206 37.1473 76.6741 37.1314 76.7185 37.0999C76.7718 37.057 76.8198 37.0078 76.8616 36.9535L76.846 36.9558ZM81.065 37.6091L80.2798 35.5072L79.4812 37.6091H78.9197L80.0136 34.748H80.5617L81.6534 37.6091H81.065ZM82.6064 37.6091V34.748H83.1477V35.8271H83.264C83.455 35.8219 83.6455 35.8486 83.8278 35.906C83.9847 35.9637 84.1205 36.0682 84.217 36.2056C84.3283 36.3598 84.3857 36.5467 84.3803 36.7372C84.3857 36.9139 84.3364 37.0878 84.2394 37.2351C84.1588 37.3595 84.0458 37.4593 83.9128 37.5235C83.7503 37.5862 83.5766 37.6146 83.4027 37.6068L82.6064 37.6091ZM83.1477 36.3137V37.0887H83.2819C83.4359 37.1034 83.5908 37.0745 83.7294 37.0053C83.7701 36.9706 83.8019 36.9264 83.8217 36.8766C83.8416 36.8267 83.8491 36.7727 83.8434 36.7192C83.8434 36.4489 83.6481 36.3137 83.2573 36.3137H83.1477ZM85.2125 34.748H86.7784V35.2842H86.2617V37.6068H85.7136V35.2865H85.2103V34.748H85.2125ZM88.6576 34.748H89.2101L90.3018 37.6091H89.7403L89.5166 37.0188H88.36L88.1363 37.6091H87.5748L88.6687 34.748H88.6576ZM88.9349 35.5072L88.5569 36.4894H89.313L88.9372 35.5072H88.9349ZM91.0736 34.748H92.6395V35.2842H92.1227V37.6068H91.5747V35.2865H91.0713L91.0736 34.748Z" fill="white"/>
</svg>
