<svg width="274" height="86" viewBox="0 0 274 86" fill="none" xmlns="http://www.w3.org/2000/svg">
<path d="M107.462 23.261C107.595 23.261 107.71 23.3094 107.807 23.4064C107.904 23.5033 107.953 23.6185 107.953 23.7518V35.495C107.953 35.6283 107.904 35.7435 107.807 35.8404C107.71 35.9374 107.595 35.9858 107.462 35.9858H105.989C105.856 35.9858 105.741 35.9374 105.644 35.8404C105.547 35.7435 105.499 35.6283 105.499 35.495V25.5333H100.009V35.495C100.009 35.6283 99.9602 35.7435 99.8633 35.8404C99.7663 35.9374 99.6512 35.9858 99.5179 35.9858H98.0455C97.9121 35.9858 97.797 35.9374 97.7001 35.8404C97.6031 35.7435 97.5546 35.6283 97.5546 35.495V23.7518C97.5546 23.6185 97.6031 23.5033 97.7001 23.4064C97.797 23.3094 97.9121 23.261 98.0455 23.261H107.462ZM119.251 33.7135C119.385 33.7135 119.5 33.762 119.597 33.859C119.694 33.9559 119.742 34.071 119.742 34.2044V35.495C119.742 35.6283 119.694 35.7435 119.597 35.8404C119.5 35.9374 119.385 35.9858 119.251 35.9858H111.271C111.138 35.9858 111.023 35.9374 110.926 35.8404C110.829 35.7435 110.78 35.6283 110.78 35.495V23.7518C110.78 23.6185 110.829 23.5033 110.926 23.4064C111.023 23.3094 111.138 23.261 111.271 23.261H119.106C119.239 23.261 119.354 23.3094 119.451 23.4064C119.548 23.5033 119.597 23.6185 119.597 23.7518V25.0424C119.597 25.1757 119.548 25.2909 119.451 25.3878C119.354 25.4848 119.239 25.5333 119.106 25.5333H113.234V28.4236H118.706C118.839 28.4236 118.954 28.4721 119.051 28.569C119.148 28.666 119.197 28.7811 119.197 28.9144V30.2051C119.197 30.3384 119.148 30.4535 119.051 30.5505C118.954 30.6474 118.839 30.6959 118.706 30.6959H113.234V33.7135H119.251ZM127.362 23.261C128.829 23.261 129.968 23.6063 130.78 24.2971C131.592 24.9879 131.998 25.9998 131.998 27.3329C131.998 28.666 131.592 29.684 130.78 30.3869C129.968 31.0898 128.829 31.4412 127.362 31.4412H124.454V35.495C124.454 35.6283 124.405 35.7435 124.308 35.8404C124.211 35.9374 124.096 35.9858 123.963 35.9858H122.49C122.357 35.9858 122.242 35.9374 122.145 35.8404C122.048 35.7435 122 35.6283 122 35.495V23.7518C122 23.6185 122.048 23.5033 122.145 23.4064C122.242 23.3094 122.357 23.261 122.49 23.261H127.362ZM124.454 29.1689H127.271C127.962 29.1689 128.514 29.0356 128.926 28.769C129.338 28.4903 129.544 28.0116 129.544 27.3329C129.544 26.6543 129.338 26.1877 128.926 25.9332C128.514 25.6666 127.962 25.5333 127.271 25.5333H124.454V29.1689ZM134.473 35.9858C134.34 35.9858 134.225 35.9374 134.128 35.8404C134.031 35.7435 133.982 35.6283 133.982 35.495V23.7518C133.982 23.6185 134.031 23.5033 134.128 23.4064C134.225 23.3094 134.34 23.261 134.473 23.261H139.836C140.612 23.261 141.26 23.3821 141.781 23.6245C142.302 23.8548 142.72 24.1517 143.035 24.5153C143.35 24.8667 143.575 25.2545 143.708 25.6787C143.853 26.0907 143.926 26.4785 143.926 26.8421C143.926 27.2057 143.878 27.5329 143.781 27.8237C143.684 28.1025 143.562 28.3448 143.417 28.5509C143.284 28.7448 143.144 28.9084 142.999 29.0417C142.866 29.175 142.757 29.2659 142.672 29.3144C143.047 29.5689 143.393 29.9324 143.708 30.4051C144.023 30.8656 144.181 31.4534 144.181 32.1684C144.181 32.6289 144.096 33.0894 143.926 33.5499C143.756 33.9983 143.508 34.4043 143.181 34.7679C142.854 35.1315 142.441 35.4284 141.945 35.6586C141.46 35.8768 140.896 35.9858 140.254 35.9858H134.473ZM141.472 26.933C141.472 26.4725 141.327 26.1271 141.036 25.8968C140.745 25.6544 140.284 25.5333 139.654 25.5333H136.437V28.3327H139.654C140.284 28.3327 140.745 28.2176 141.036 27.9873C141.327 27.745 141.472 27.3935 141.472 26.933ZM136.437 33.7135H139.8C140.466 33.7135 140.951 33.5742 141.254 33.2954C141.569 33.0046 141.726 32.6289 141.726 32.1684C141.726 31.7079 141.563 31.3322 141.236 31.0413C140.921 30.7505 140.442 30.605 139.8 30.605H136.437V33.7135ZM152.23 23.261C152.424 23.261 152.569 23.3155 152.666 23.4246C152.763 23.5215 152.848 23.673 152.92 23.879L157.374 35.3678C157.386 35.4041 157.392 35.4465 157.392 35.495C157.392 35.6283 157.344 35.7435 157.247 35.8404C157.15 35.9374 157.035 35.9858 156.901 35.9858H155.593C155.35 35.9858 155.181 35.9374 155.084 35.8404C154.987 35.7313 154.92 35.6283 154.884 35.5314L154.102 33.5136H148.358L147.576 35.5314C147.54 35.6283 147.473 35.7313 147.376 35.8404C147.279 35.9374 147.109 35.9858 146.867 35.9858H145.558C145.425 35.9858 145.31 35.9374 145.213 35.8404C145.116 35.7435 145.067 35.6283 145.067 35.495C145.067 35.4465 145.073 35.4041 145.085 35.3678L149.539 23.879C149.612 23.673 149.697 23.5215 149.794 23.4246C149.891 23.3155 150.036 23.261 150.23 23.261H152.23ZM153.229 31.2413L151.23 26.0604L149.23 31.2413H153.229ZM163.194 23.261C161.679 23.261 160.528 23.6124 159.74 24.3153C158.952 25.0182 158.558 25.9938 158.558 27.242C158.558 28.1267 158.758 28.8841 159.158 29.5143C159.57 30.1324 160.17 30.5929 160.958 30.8959L158.449 35.386C158.413 35.4587 158.395 35.5253 158.395 35.5859C158.395 35.695 158.431 35.7919 158.504 35.8768C158.589 35.9495 158.686 35.9858 158.795 35.9858H160.34C160.582 35.9858 160.758 35.9313 160.867 35.8222C160.988 35.701 161.073 35.592 161.122 35.495L163.503 31.2595H165.921V35.495C165.921 35.6283 165.969 35.7435 166.066 35.8404C166.163 35.9374 166.278 35.9858 166.411 35.9858H167.884C168.017 35.9858 168.132 35.9374 168.229 35.8404C168.326 35.7435 168.375 35.6283 168.375 35.495V23.7518C168.375 23.6185 168.326 23.5033 168.229 23.4064C168.132 23.3094 168.017 23.261 167.884 23.261H163.194ZM165.921 28.9872H163.285C162.594 28.9872 162.043 28.866 161.631 28.6236C161.218 28.3812 161.012 27.9207 161.012 27.242C161.012 26.5634 161.218 26.1089 161.631 25.8786C162.043 25.6484 162.594 25.5333 163.285 25.5333H165.921V28.9872ZM118.836 48.5333V55.4411C118.836 55.9864 118.757 56.4893 118.6 56.9499C118.454 57.3983 118.23 57.7921 117.927 58.1315C117.624 58.4587 117.236 58.7132 116.764 58.8949C116.303 59.0767 115.764 59.1676 115.146 59.1676H114.691C114.558 59.1676 114.443 59.1191 114.346 59.0222C114.249 58.9252 114.201 58.8101 114.201 58.6768V57.3861C114.201 57.2528 114.249 57.1377 114.346 57.0408C114.443 56.9438 114.558 56.8953 114.691 56.8953H114.873C115.358 56.8953 115.728 56.7499 115.982 56.459C116.249 56.1682 116.382 55.7804 116.382 55.2956V46.7518C116.382 46.6185 116.43 46.5033 116.527 46.4064C116.624 46.3094 116.739 46.261 116.873 46.261H125.126C125.259 46.261 125.374 46.3094 125.471 46.4064C125.568 46.5033 125.617 46.6185 125.617 46.7518V58.495C125.617 58.6283 125.568 58.7435 125.471 58.8404C125.374 58.9374 125.259 58.9858 125.126 58.9858H123.653C123.52 58.9858 123.405 58.9374 123.308 58.8404C123.211 58.7435 123.162 58.6283 123.162 58.495V48.5333H118.836ZM136.918 56.7135C137.051 56.7135 137.166 56.762 137.263 56.859C137.36 56.9559 137.409 57.071 137.409 57.2044V58.495C137.409 58.6283 137.36 58.7435 137.263 58.8404C137.166 58.9374 137.051 58.9858 136.918 58.9858H128.937C128.804 58.9858 128.689 58.9374 128.592 58.8404C128.495 58.7435 128.447 58.6283 128.447 58.495V46.7518C128.447 46.6185 128.495 46.5033 128.592 46.4064C128.689 46.3094 128.804 46.261 128.937 46.261H136.772C136.906 46.261 137.021 46.3094 137.118 46.4064C137.215 46.5033 137.263 46.6185 137.263 46.7518V48.0424C137.263 48.1757 137.215 48.2909 137.118 48.3878C137.021 48.4848 136.906 48.5333 136.772 48.5333H130.901V51.4236H136.372C136.506 51.4236 136.621 51.4721 136.718 51.569C136.815 51.666 136.863 51.7811 136.863 51.9144V53.2051C136.863 53.3384 136.815 53.4535 136.718 53.5505C136.621 53.6474 136.506 53.6959 136.372 53.6959H130.901V56.7135H136.918ZM149.319 58.2223C149.379 58.2829 149.416 58.3375 149.428 58.386C149.44 58.4344 149.446 58.4708 149.446 58.495C149.446 58.6283 149.398 58.7435 149.301 58.8404C149.204 58.9374 149.089 58.9858 148.955 58.9858H147.228C146.986 58.9858 146.792 58.9252 146.647 58.8041C146.501 58.6707 146.416 58.592 146.392 58.5677L142.12 53.7505V58.495C142.12 58.6283 142.072 58.7435 141.975 58.8404C141.878 58.9374 141.763 58.9858 141.629 58.9858H140.157C140.024 58.9858 139.908 58.9374 139.811 58.8404C139.715 58.7435 139.666 58.6283 139.666 58.495V46.7518C139.666 46.6185 139.715 46.5033 139.811 46.4064C139.908 46.3094 140.024 46.261 140.157 46.261H141.629C141.763 46.261 141.878 46.3094 141.975 46.4064C142.072 46.5033 142.12 46.6185 142.12 46.7518V51.0237L146.083 46.6609C146.192 46.5397 146.307 46.4427 146.428 46.37C146.55 46.2973 146.707 46.261 146.901 46.261H148.573C148.707 46.261 148.822 46.3094 148.919 46.4064C149.016 46.5033 149.064 46.6185 149.064 46.7518C149.064 46.8487 149.028 46.9396 148.955 47.0244L144.065 52.3507L149.319 58.2223ZM159.552 46.261C159.685 46.261 159.8 46.3094 159.897 46.4064C159.994 46.5033 160.043 46.6185 160.043 46.7518V48.0424C160.043 48.1757 159.994 48.2909 159.897 48.3878C159.8 48.4848 159.685 48.5333 159.552 48.5333H156.28V58.495C156.28 58.6283 156.231 58.7435 156.134 58.8404C156.037 58.9374 155.922 58.9858 155.789 58.9858H154.317C154.183 58.9858 154.068 58.9374 153.971 58.8404C153.874 58.7435 153.826 58.6283 153.826 58.495V48.5333H150.554C150.42 48.5333 150.305 48.4848 150.208 48.3878C150.111 48.2909 150.063 48.1757 150.063 48.0424V46.7518C150.063 46.6185 150.111 46.5033 150.208 46.4064C150.305 46.3094 150.42 46.261 150.554 46.261H159.552ZM167.219 46.261C168.686 46.261 169.825 46.6063 170.637 47.2971C171.449 47.9879 171.855 48.9998 171.855 50.3329C171.855 51.666 171.449 52.684 170.637 53.3869C169.825 54.0898 168.686 54.4412 167.219 54.4412H164.311V58.495C164.311 58.6283 164.262 58.7435 164.165 58.8404C164.068 58.9374 163.953 58.9858 163.82 58.9858H162.347C162.214 58.9858 162.099 58.9374 162.002 58.8404C161.905 58.7435 161.856 58.6283 161.856 58.495V46.7518C161.856 46.6185 161.905 46.5033 162.002 46.4064C162.099 46.3094 162.214 46.261 162.347 46.261H167.219ZM164.311 52.1689H167.128C167.819 52.1689 168.37 52.0356 168.782 51.769C169.195 51.4903 169.401 51.0116 169.401 50.3329C169.401 49.6543 169.195 49.1877 168.782 48.9332C168.37 48.6666 167.819 48.5333 167.128 48.5333H164.311V52.1689ZM173.403 51.0055C173.439 50.3269 173.567 49.6906 173.785 49.0968C174.015 48.4908 174.348 47.9697 174.785 47.5334C175.221 47.085 175.766 46.7336 176.421 46.4791C177.075 46.2125 177.851 46.0792 178.747 46.0792C179.632 46.0792 180.402 46.2064 181.056 46.4609C181.711 46.7154 182.256 47.0669 182.692 47.5153C183.128 47.9637 183.462 48.4848 183.692 49.0786C183.922 49.6724 184.056 50.3147 184.092 51.0055C184.104 51.2358 184.11 51.4903 184.11 51.769C184.122 52.0477 184.128 52.3386 184.128 52.6416C184.128 52.9324 184.122 53.2172 184.11 53.496C184.11 53.7747 184.104 54.0292 184.092 54.2595C184.056 54.9381 183.922 55.5804 183.692 56.1864C183.474 56.7802 183.147 57.3013 182.71 57.7497C182.274 58.186 181.723 58.5314 181.056 58.7859C180.402 59.0404 179.632 59.1676 178.747 59.1676C177.851 59.1676 177.075 59.0404 176.421 58.7859C175.766 58.5314 175.221 58.186 174.785 57.7497C174.348 57.3013 174.015 56.7802 173.785 56.1864C173.567 55.5804 173.439 54.9381 173.403 54.2595C173.391 54.0292 173.379 53.7747 173.367 53.496C173.367 53.2172 173.367 52.9324 173.367 52.6416C173.367 52.3386 173.367 52.0477 173.367 51.769C173.379 51.4903 173.391 51.2358 173.403 51.0055ZM181.638 51.0964C181.589 50.2238 181.305 49.5512 180.783 49.0786C180.274 48.5938 179.596 48.3515 178.747 48.3515C177.899 48.3515 177.214 48.5938 176.693 49.0786C176.184 49.5512 175.906 50.2238 175.857 51.0964C175.833 51.5569 175.821 52.072 175.821 52.6416C175.821 53.199 175.833 53.708 175.857 54.1686C175.906 55.0411 176.184 55.7137 176.693 56.1864C177.214 56.659 177.899 56.8953 178.747 56.8953C179.596 56.8953 180.274 56.659 180.783 56.1864C181.305 55.7137 181.589 55.0411 181.638 54.1686C181.662 53.708 181.674 53.199 181.674 52.6416C181.674 52.072 181.662 51.5569 181.638 51.0964ZM194.313 54.9502C194.338 54.7927 194.398 54.6776 194.495 54.6048C194.604 54.52 194.719 54.4776 194.841 54.4776H196.313C196.446 54.4776 196.562 54.5261 196.658 54.623C196.768 54.7079 196.816 54.823 196.804 54.9684C196.768 55.4653 196.64 55.9622 196.422 56.459C196.216 56.9559 195.895 57.4043 195.459 57.8042C195.022 58.2042 194.471 58.5314 193.804 58.7859C193.138 59.0404 192.332 59.1676 191.387 59.1676C190.551 59.1676 189.811 59.0464 189.169 58.8041C188.527 58.5496 187.981 58.2042 187.533 57.7679C187.085 57.3195 186.733 56.7863 186.479 56.1682C186.236 55.5501 186.091 54.8775 186.042 54.1504C186.018 53.6899 186.006 53.1809 186.006 52.6234C186.006 52.0659 186.018 51.5569 186.042 51.0964C186.091 50.3693 186.236 49.6967 186.479 49.0786C186.733 48.4605 187.085 47.9334 187.533 47.4971C187.981 47.0487 188.527 46.7033 189.169 46.4609C189.811 46.2064 190.551 46.0792 191.387 46.0792C192.332 46.0792 193.138 46.2064 193.804 46.4609C194.471 46.7154 195.022 47.0426 195.459 47.4426C195.895 47.8425 196.216 48.2969 196.422 48.8059C196.64 49.3028 196.768 49.7936 196.804 50.2784C196.816 50.4238 196.768 50.545 196.658 50.642C196.562 50.7268 196.446 50.7692 196.313 50.7692H194.841C194.719 50.7692 194.604 50.7328 194.495 50.6601C194.386 50.5753 194.32 50.4541 194.295 50.2966C194.259 50.0542 194.174 49.8179 194.041 49.5876C193.907 49.3573 193.726 49.1513 193.495 48.9695C193.265 48.7878 192.974 48.6423 192.623 48.5333C192.271 48.4121 191.859 48.3515 191.387 48.3515C190.914 48.3515 190.502 48.4242 190.151 48.5696C189.799 48.715 189.502 48.9089 189.26 49.1513C189.03 49.3937 188.848 49.6846 188.715 50.0239C188.593 50.3632 188.521 50.7207 188.496 51.0964C188.472 51.5569 188.46 52.0659 188.46 52.6234C188.46 53.1809 188.472 53.6899 188.496 54.1504C188.521 54.5382 188.593 54.9018 188.715 55.2411C188.848 55.5683 189.03 55.8531 189.26 56.0955C189.502 56.3379 189.799 56.5318 190.151 56.6772C190.502 56.8226 190.914 56.8953 191.387 56.8953C191.859 56.8953 192.271 56.8408 192.623 56.7317C192.974 56.6105 193.265 56.459 193.495 56.2773C193.738 56.0955 193.926 55.8895 194.059 55.6592C194.192 55.4289 194.277 55.1926 194.313 54.9502ZM207.395 56.7135C207.528 56.7135 207.643 56.762 207.74 56.859C207.837 56.9559 207.885 57.071 207.885 57.2044V58.495C207.885 58.6283 207.837 58.7435 207.74 58.8404C207.643 58.9374 207.528 58.9858 207.395 58.9858H199.414C199.281 58.9858 199.166 58.9374 199.069 58.8404C198.972 58.7435 198.923 58.6283 198.923 58.495V46.7518C198.923 46.6185 198.972 46.5033 199.069 46.4064C199.166 46.3094 199.281 46.261 199.414 46.261H207.249C207.382 46.261 207.498 46.3094 207.595 46.4064C207.691 46.5033 207.74 46.6185 207.74 46.7518V48.0424C207.74 48.1757 207.691 48.2909 207.595 48.3878C207.498 48.4848 207.382 48.5333 207.249 48.5333H201.377V51.4236H206.849C206.982 51.4236 207.098 51.4721 207.195 51.569C207.292 51.666 207.34 51.7811 207.34 51.9144V53.2051C207.34 53.3384 207.292 53.4535 207.195 53.5505C207.098 53.6474 206.982 53.6959 206.849 53.6959H201.377V56.7135H207.395ZM218.614 46.261C218.747 46.261 218.862 46.3094 218.959 46.4064C219.056 46.5033 219.105 46.6185 219.105 46.7518V48.0424C219.105 48.1757 219.056 48.2909 218.959 48.3878C218.862 48.4848 218.747 48.5333 218.614 48.5333H215.342V58.495C215.342 58.6283 215.293 58.7435 215.196 58.8404C215.1 58.9374 214.984 58.9858 214.851 58.9858H213.379C213.245 58.9858 213.13 58.9374 213.033 58.8404C212.936 58.7435 212.888 58.6283 212.888 58.495V48.5333H209.616C209.482 48.5333 209.367 48.4848 209.27 48.3878C209.173 48.2909 209.125 48.1757 209.125 48.0424V46.7518C209.125 46.6185 209.173 46.5033 209.27 46.4064C209.367 46.3094 209.482 46.261 209.616 46.261H218.614ZM229.39 56.7135C229.523 56.7135 229.638 56.762 229.735 56.859C229.832 56.9559 229.881 57.071 229.881 57.2044V58.495C229.881 58.6283 229.832 58.7435 229.735 58.8404C229.638 58.9374 229.523 58.9858 229.39 58.9858H221.409C221.276 58.9858 221.161 58.9374 221.064 58.8404C220.967 58.7435 220.919 58.6283 220.919 58.495V46.7518C220.919 46.6185 220.967 46.5033 221.064 46.4064C221.161 46.3094 221.276 46.261 221.409 46.261H229.244C229.378 46.261 229.493 46.3094 229.59 46.4064C229.687 46.5033 229.735 46.6185 229.735 46.7518V48.0424C229.735 48.1757 229.687 48.2909 229.59 48.3878C229.493 48.4848 229.378 48.5333 229.244 48.5333H223.373V51.4236H228.844C228.978 51.4236 229.093 51.4721 229.19 51.569C229.287 51.666 229.335 51.7811 229.335 51.9144V53.2051C229.335 53.3384 229.287 53.4535 229.19 53.5505C229.093 53.6474 228.978 53.6959 228.844 53.6959H223.373V56.7135H229.39ZM232.629 58.9858C232.496 58.9858 232.38 58.9374 232.283 58.8404C232.187 58.7435 232.138 58.6283 232.138 58.495V46.7518C232.138 46.6185 232.187 46.5033 232.283 46.4064C232.38 46.3094 232.496 46.261 232.629 46.261H237.992C238.767 46.261 239.415 46.3821 239.937 46.6245C240.458 46.8548 240.876 47.1517 241.191 47.5153C241.506 47.8667 241.73 48.2545 241.864 48.6787C242.009 49.0907 242.082 49.4785 242.082 49.8421C242.082 50.2057 242.033 50.5329 241.936 50.8237C241.839 51.1025 241.718 51.3448 241.573 51.5509C241.439 51.7448 241.3 51.9084 241.155 52.0417C241.021 52.175 240.912 52.2659 240.827 52.3144C241.203 52.5689 241.548 52.9324 241.864 53.4051C242.179 53.8656 242.336 54.4534 242.336 55.1684C242.336 55.6289 242.251 56.0894 242.082 56.5499C241.912 56.9983 241.664 57.4043 241.336 57.7679C241.009 58.1315 240.597 58.4284 240.1 58.6586C239.615 58.8768 239.052 58.9858 238.41 58.9858H232.629ZM239.628 49.933C239.628 49.4725 239.482 49.1271 239.191 48.8968C238.9 48.6544 238.44 48.5333 237.81 48.5333H234.592V51.3327H237.81C238.44 51.3327 238.9 51.2176 239.191 50.9873C239.482 50.745 239.628 50.3935 239.628 49.933ZM234.592 56.7135H237.955C238.622 56.7135 239.106 56.5742 239.409 56.2954C239.725 56.0046 239.882 55.6289 239.882 55.1684C239.882 54.7079 239.718 54.3322 239.391 54.0413C239.076 53.7505 238.597 53.605 237.955 53.605H234.592V56.7135ZM250.385 46.261C250.579 46.261 250.725 46.3155 250.821 46.4246C250.918 46.5215 251.003 46.673 251.076 46.879L255.53 58.3678C255.542 58.4041 255.548 58.4465 255.548 58.495C255.548 58.6283 255.499 58.7435 255.402 58.8404C255.305 58.9374 255.19 58.9858 255.057 58.9858H253.748C253.506 58.9858 253.336 58.9374 253.239 58.8404C253.142 58.7313 253.076 58.6283 253.039 58.5314L252.258 56.5136H246.513L245.732 58.5314C245.695 58.6283 245.629 58.7313 245.532 58.8404C245.435 58.9374 245.265 58.9858 245.023 58.9858H243.714C243.58 58.9858 243.465 58.9374 243.368 58.8404C243.271 58.7435 243.223 58.6283 243.223 58.495C243.223 58.4465 243.229 58.4041 243.241 58.3678L247.695 46.879C247.768 46.673 247.852 46.5215 247.949 46.4246C248.046 46.3155 248.192 46.261 248.386 46.261H250.385ZM251.385 54.2413L249.385 49.0604L247.386 54.2413H251.385ZM261.349 46.261C259.835 46.261 258.683 46.6124 257.896 47.3153C257.108 48.0182 256.714 48.9938 256.714 50.242C256.714 51.1267 256.914 51.8841 257.314 52.5143C257.726 53.1324 258.326 53.5929 259.114 53.8959L256.605 58.386C256.569 58.4587 256.55 58.5253 256.55 58.5859C256.55 58.695 256.587 58.7919 256.659 58.8768C256.744 58.9495 256.841 58.9858 256.95 58.9858H258.495C258.738 58.9858 258.914 58.9313 259.023 58.8222C259.144 58.701 259.229 58.592 259.277 58.495L261.659 54.2595H264.076V58.495C264.076 58.6283 264.125 58.7435 264.222 58.8404C264.319 58.9374 264.434 58.9858 264.567 58.9858H266.04C266.173 58.9858 266.288 58.9374 266.385 58.8404C266.482 58.7435 266.53 58.6283 266.53 58.495V46.7518C266.53 46.6185 266.482 46.5033 266.385 46.4064C266.288 46.3094 266.173 46.261 266.04 46.261H261.349ZM264.076 51.9872H261.44C260.75 51.9872 260.198 51.866 259.786 51.6236C259.374 51.3812 259.168 50.9207 259.168 50.242C259.168 49.5634 259.374 49.1089 259.786 48.8786C260.198 48.6484 260.75 48.5333 261.44 48.5333H264.076V51.9872ZM107.207 81.2223C107.268 81.2829 107.304 81.3375 107.316 81.386C107.329 81.4344 107.335 81.4708 107.335 81.495C107.335 81.6283 107.286 81.7435 107.189 81.8404C107.092 81.9374 106.977 81.9858 106.844 81.9858H105.117C104.874 81.9858 104.681 81.9252 104.535 81.8041C104.39 81.6707 104.305 81.592 104.281 81.5677L100.009 76.7505V81.495C100.009 81.6283 99.9602 81.7435 99.8633 81.8404C99.7663 81.9374 99.6512 81.9858 99.5179 81.9858H98.0455C97.9121 81.9858 97.797 81.9374 97.7001 81.8404C97.6031 81.7435 97.5546 81.6283 97.5546 81.495V69.7518C97.5546 69.6185 97.6031 69.5033 97.7001 69.4064C97.797 69.3094 97.9121 69.261 98.0455 69.261H99.5179C99.6512 69.261 99.7663 69.3094 99.8633 69.4064C99.9602 69.5033 100.009 69.6185 100.009 69.7518V74.0237L103.972 69.6609C104.081 69.5397 104.196 69.4427 104.317 69.37C104.438 69.2973 104.596 69.261 104.79 69.261H106.462C106.595 69.261 106.71 69.3094 106.807 69.4064C106.904 69.5033 106.953 69.6185 106.953 69.7518C106.953 69.8487 106.917 69.9396 106.844 70.0244L101.954 75.3507L107.207 81.2223ZM107.752 74.0055C107.788 73.3269 107.916 72.6906 108.134 72.0968C108.364 71.4908 108.697 70.9697 109.134 70.5334C109.57 70.085 110.115 69.7336 110.77 69.4791C111.424 69.2125 112.2 69.0792 113.096 69.0792C113.981 69.0792 114.751 69.2064 115.405 69.4609C116.06 69.7154 116.605 70.0669 117.041 70.5153C117.477 70.9637 117.811 71.4848 118.041 72.0786C118.271 72.6724 118.405 73.3147 118.441 74.0055C118.453 74.2358 118.459 74.4903 118.459 74.769C118.471 75.0477 118.477 75.3386 118.477 75.6416C118.477 75.9324 118.471 76.2172 118.459 76.496C118.459 76.7747 118.453 77.0292 118.441 77.2595C118.405 77.9381 118.271 78.5804 118.041 79.1864C117.823 79.7802 117.496 80.3013 117.059 80.7497C116.623 81.186 116.072 81.5314 115.405 81.7859C114.751 82.0404 113.981 82.1676 113.096 82.1676C112.2 82.1676 111.424 82.0404 110.77 81.7859C110.115 81.5314 109.57 81.186 109.134 80.7497C108.697 80.3013 108.364 79.7802 108.134 79.1864C107.916 78.5804 107.788 77.9381 107.752 77.2595C107.74 77.0292 107.728 76.7747 107.716 76.496C107.716 76.2172 107.716 75.9324 107.716 75.6416C107.716 75.3386 107.716 75.0477 107.716 74.769C107.728 74.4903 107.74 74.2358 107.752 74.0055ZM115.987 74.0964C115.938 73.2238 115.654 72.5512 115.132 72.0786C114.623 71.5938 113.945 71.3515 113.096 71.3515C112.248 71.3515 111.563 71.5938 111.042 72.0786C110.533 72.5512 110.255 73.2238 110.206 74.0964C110.182 74.5569 110.17 75.072 110.17 75.6416C110.17 76.199 110.182 76.708 110.206 77.1686C110.255 78.0411 110.533 78.7137 111.042 79.1864C111.563 79.659 112.248 79.8953 113.096 79.8953C113.945 79.8953 114.623 79.659 115.132 79.1864C115.654 78.7137 115.938 78.0411 115.987 77.1686C116.011 76.708 116.023 76.199 116.023 75.6416C116.023 75.072 116.011 74.5569 115.987 74.0964ZM126.808 75.7506L130.262 69.7518C130.311 69.6912 130.389 69.5942 130.498 69.4609C130.62 69.3276 130.801 69.261 131.044 69.261H132.28C132.413 69.261 132.528 69.3094 132.625 69.4064C132.722 69.5033 132.771 69.6185 132.771 69.7518V81.495C132.771 81.6283 132.722 81.7435 132.625 81.8404C132.528 81.9374 132.413 81.9858 132.28 81.9858H130.807C130.674 81.9858 130.559 81.9374 130.462 81.8404C130.365 81.7435 130.317 81.6283 130.317 81.495V74.3873L127.953 78.4774C127.893 78.5744 127.808 78.6774 127.699 78.7864C127.59 78.8834 127.451 78.9319 127.281 78.9319H126.336C126.166 78.9319 126.027 78.8834 125.917 78.7864C125.808 78.6774 125.724 78.5744 125.663 78.4774L123.3 74.3873V81.495C123.3 81.6283 123.251 81.7435 123.154 81.8404C123.057 81.9374 122.942 81.9858 122.809 81.9858H121.337C121.203 81.9858 121.088 81.9374 120.991 81.8404C120.894 81.7435 120.846 81.6283 120.846 81.495V69.7518C120.846 69.6185 120.894 69.5033 120.991 69.4064C121.088 69.3094 121.203 69.261 121.337 69.261H122.573C122.815 69.261 122.991 69.3276 123.1 69.4609C123.221 69.5942 123.306 69.6912 123.354 69.7518L126.808 75.7506ZM145.505 69.261C145.638 69.261 145.754 69.3094 145.851 69.4064C145.947 69.5033 145.996 69.6185 145.996 69.7518V81.495C145.996 81.6283 145.947 81.7435 145.851 81.8404C145.754 81.9374 145.638 81.9858 145.505 81.9858H144.033C143.899 81.9858 143.784 81.9374 143.687 81.8404C143.59 81.7435 143.542 81.6283 143.542 81.495V71.5333H138.052V81.495C138.052 81.6283 138.004 81.7435 137.907 81.8404C137.81 81.9374 137.695 81.9858 137.561 81.9858H136.089C135.955 81.9858 135.84 81.9374 135.743 81.8404C135.646 81.7435 135.598 81.6283 135.598 81.495V69.7518C135.598 69.6185 135.646 69.5033 135.743 69.4064C135.84 69.3094 135.955 69.261 136.089 69.261H145.505ZM154.786 69.261C154.98 69.261 155.125 69.3155 155.222 69.4246C155.319 69.5215 155.404 69.673 155.477 69.879L159.93 81.3678C159.943 81.4041 159.949 81.4465 159.949 81.495C159.949 81.6283 159.9 81.7435 159.803 81.8404C159.706 81.9374 159.591 81.9858 159.458 81.9858H158.149C157.907 81.9858 157.737 81.9374 157.64 81.8404C157.543 81.7313 157.476 81.6283 157.44 81.5314L156.658 79.5136H150.914L150.132 81.5314C150.096 81.6283 150.029 81.7313 149.932 81.8404C149.835 81.9374 149.666 81.9858 149.423 81.9858H148.114C147.981 81.9858 147.866 81.9374 147.769 81.8404C147.672 81.7435 147.624 81.6283 147.624 81.495C147.624 81.4465 147.63 81.4041 147.642 81.3678L152.096 69.879C152.168 69.673 152.253 69.5215 152.35 69.4246C152.447 69.3155 152.592 69.261 152.786 69.261H154.786ZM155.786 77.2413L153.786 72.0604L151.787 77.2413H155.786ZM171.495 69.261C171.628 69.261 171.743 69.3094 171.84 69.4064C171.937 69.5033 171.985 69.6185 171.985 69.7518V81.495C171.985 81.6283 171.937 81.7435 171.84 81.8404C171.743 81.9374 171.628 81.9858 171.495 81.9858H170.022C169.889 81.9858 169.774 81.9374 169.677 81.8404C169.58 81.7435 169.531 81.6283 169.531 81.495V76.6959H164.041V81.495C164.041 81.6283 163.993 81.7435 163.896 81.8404C163.799 81.9374 163.684 81.9858 163.551 81.9858H162.078C161.945 81.9858 161.83 81.9434 161.733 81.8586C161.636 81.7616 161.587 81.6405 161.587 81.495V69.7518C161.587 69.6185 161.636 69.5033 161.733 69.4064C161.83 69.3094 161.945 69.261 162.078 69.261H163.551C163.684 69.261 163.799 69.3094 163.896 69.4064C163.993 69.5033 164.041 69.6185 164.041 69.7518V74.4236H169.531V69.7518C169.531 69.6185 169.58 69.5033 169.677 69.4064C169.774 69.3094 169.889 69.261 170.022 69.261H171.495ZM176.576 81.9858C176.782 81.9858 176.94 81.9313 177.049 81.8222C177.158 81.7132 177.237 81.6283 177.285 81.5677L182.375 74.0055V81.495C182.375 81.6283 182.424 81.7435 182.521 81.8404C182.617 81.9374 182.733 81.9858 182.866 81.9858H184.338C184.472 81.9858 184.587 81.9374 184.684 81.8404C184.781 81.7435 184.829 81.6283 184.829 81.495V69.7518C184.829 69.6185 184.781 69.5033 184.684 69.4064C184.587 69.3094 184.472 69.261 184.338 69.261H183.066C182.86 69.261 182.702 69.3155 182.593 69.4246C182.484 69.5336 182.405 69.6185 182.357 69.6791L177.267 77.2413V69.7518C177.267 69.6185 177.218 69.5033 177.122 69.4064C177.025 69.3094 176.909 69.261 176.776 69.261H175.304C175.17 69.261 175.055 69.3094 174.958 69.4064C174.861 69.5033 174.813 69.6185 174.813 69.7518V81.495C174.813 81.6283 174.861 81.7435 174.958 81.8404C175.055 81.9374 175.17 81.9858 175.304 81.9858H176.576ZM191.828 69.261C190.314 69.261 189.162 69.6124 188.375 70.3153C187.587 71.0182 187.193 71.9938 187.193 73.242C187.193 74.1267 187.393 74.8841 187.793 75.5143C188.205 76.1324 188.805 76.5929 189.592 76.8959L187.084 81.386C187.048 81.4587 187.029 81.5253 187.029 81.5859C187.029 81.695 187.066 81.7919 187.138 81.8768C187.223 81.9495 187.32 81.9858 187.429 81.9858H188.974C189.217 81.9858 189.393 81.9313 189.502 81.8222C189.623 81.701 189.708 81.592 189.756 81.495L192.137 77.2595H194.555V81.495C194.555 81.6283 194.604 81.7435 194.701 81.8404C194.798 81.9374 194.913 81.9858 195.046 81.9858H196.518C196.652 81.9858 196.767 81.9374 196.864 81.8404C196.961 81.7435 197.009 81.6283 197.009 81.495V69.7518C197.009 69.6185 196.961 69.5033 196.864 69.4064C196.767 69.3094 196.652 69.261 196.518 69.261H191.828ZM194.555 74.9872H191.919C191.229 74.9872 190.677 74.866 190.265 74.6236C189.853 74.3812 189.647 73.9207 189.647 73.242C189.647 72.5634 189.853 72.1089 190.265 71.8786C190.677 71.6484 191.229 71.5333 191.919 71.5333H194.555V74.9872Z" fill="white"/>
<path d="M23.8787 14.9768C24.506 15.319 25.2918 15.0878 25.6339 14.4606C25.976 13.8334 25.7449 13.0476 25.1177 12.7055L23.8787 14.9768ZM22.676 0.745506C21.9832 0.571085 21.2801 0.991345 21.1057 1.68418C20.9313 2.37702 21.3516 3.08007 22.0444 3.25449L22.676 0.745506ZM101.352 47.6518L101.833 48.8524L101.843 48.8487L101.852 48.8448L101.352 47.6518ZM99.8979 48.5892L100.799 49.5178L100.805 49.5121L100.81 49.5063L99.8979 48.5892ZM98.9492 49.9641L97.7612 49.4521L98.9492 49.9641ZM98.5513 51.6046L97.261 51.5127L97.2607 51.5164L98.5513 51.6046ZM98.5513 54.5254L99.8417 54.4335L99.8417 54.4329L98.5513 54.5254ZM99.8979 57.5408L100.81 56.6237L100.805 56.6179L100.799 56.6122L99.8979 57.5408ZM101.352 58.4938L100.851 59.6868L100.861 59.6907L100.87 59.6945L101.352 58.4938ZM97.9189 54.8027C98.6334 54.8027 99.2126 54.2235 99.2126 53.509C99.2126 52.7946 98.6334 52.2154 97.9189 52.2154V54.8027ZM94.9531 53.509V52.2154H94.9232L94.8934 52.2168L94.9531 53.509ZM63.7739 83.712V85.0056H63.8038L63.8336 85.0042L63.7739 83.712ZM52.0328 20.3538L52.9153 19.4079L52.2234 18.7624L51.3987 19.2263L52.0328 20.3538ZM23.6101 36.3393L22.976 35.2118L22.3165 35.5827V36.3393H23.6101ZM2 83.712H0.706363V85.0056H2V83.712ZM17.1345 49.9411C17.7799 50.2476 18.5515 49.9729 18.8581 49.3276C19.1646 48.6822 18.8899 47.9106 18.2446 47.604L17.1345 49.9411ZM23.6101 68.9065V70.2002H24.9037V68.9065H23.6101ZM16.3574 68.9065V67.6129H15.0638V68.9065H16.3574ZM16.3574 83.712V85.0056H17.651V83.712H16.3574ZM29.8267 84H28.5331V85.2936H29.8267V84ZM29.8267 51.1408L29.2833 49.9669L28.5331 50.3141V51.1408H29.8267ZM44.0361 44.6282H45.3297V42.6164L43.4994 43.4511L44.0361 44.6282ZM44.0361 83.712H42.7425V85.0056H44.0361V83.712ZM34.5632 84V85.2936C35.2776 85.2936 35.8568 84.7145 35.8568 84H34.5632ZM34.5632 48.9481L34.0264 47.771L34.0197 47.7741L34.5632 48.9481ZM63.7739 31.3069H65.0676C65.0676 30.9482 64.9187 30.6056 64.6564 30.3609L63.7739 31.3069ZM62.4803 76.8953C62.4803 77.6098 63.0595 78.1889 63.7739 78.1889C64.4884 78.1889 65.0676 77.6098 65.0676 76.8953H62.4803ZM11.1455 45.6643L10.5654 46.8205C10.5737 46.8247 10.5821 46.8288 10.5905 46.8328L11.1455 45.6643ZM13.5451 23.6101L12.5411 22.7943C12.384 22.9878 12.286 23.2224 12.2591 23.4702L13.5451 23.6101ZM32.3969 23.8599C32.8618 24.4024 33.6785 24.4652 34.221 24.0003C34.7634 23.5353 34.8262 22.7186 34.3613 22.1762L32.3969 23.8599ZM12.3453 34.6372L11.0593 34.4973L12.3453 34.6372ZM18.8685 32.5674C19.5647 32.4067 19.9988 31.7121 19.8381 31.016C19.6775 30.3198 18.9829 29.8857 18.2867 30.0464L18.8685 32.5674ZM111.235 56.5788C111.949 56.5788 112.528 55.9996 112.528 55.2852C112.528 54.5707 111.949 53.9916 111.235 53.9916V56.5788ZM111.235 52.1384C111.949 52.1384 112.528 51.5592 112.528 50.8448C112.528 50.1303 111.949 49.5511 111.235 49.5511V52.1384ZM2.65164 41.4027L3.23176 40.2465L2.65164 41.4027ZM25.1177 12.7055C24.7239 12.4907 24.0998 12.0597 23.5928 11.5177C23.0628 10.9511 22.8315 10.4494 22.8315 10.0735H20.2443C20.2443 11.42 20.9997 12.533 21.7033 13.2851C22.4297 14.0617 23.2857 14.6534 23.8787 14.9768L25.1177 12.7055ZM22.8315 10.0735C22.8315 9.545 23.2094 8.95707 24.0056 8.01612C24.3455 7.61442 24.7802 7.12086 25.1086 6.63323C25.4348 6.14898 25.7918 5.48184 25.7918 4.69117H23.2046C23.2046 4.70785 23.1916 4.84807 22.9627 5.18798C22.736 5.52453 22.4307 5.87196 22.0305 6.34489C21.3466 7.1532 20.2443 8.44909 20.2443 10.0735H22.8315ZM25.7918 4.69117C25.7918 2.1071 23.6532 0.991518 22.676 0.745506L22.0444 3.25449C22.2065 3.29531 22.5298 3.43576 22.7925 3.6924C23.0266 3.92107 23.2046 4.22799 23.2046 4.69117H25.7918ZM103.31 45.9988C102.435 45.9988 101.608 46.1416 100.851 46.4588L101.852 48.8448C102.238 48.6828 102.716 48.5861 103.31 48.5861V45.9988ZM100.87 46.4511C100.153 46.7386 99.518 47.1424 98.9856 47.6721L100.81 49.5063C101.074 49.2444 101.407 49.0232 101.833 48.8524L100.87 46.4511ZM98.9973 47.6606C98.4672 48.1747 98.0532 48.7745 97.7612 49.4521L100.137 50.4761C100.294 50.1121 100.513 49.7953 100.799 49.5178L98.9973 47.6606ZM97.7612 49.4521C97.4786 50.1079 97.312 50.7969 97.261 51.5127L99.8417 51.6965C99.8723 51.2665 99.971 50.8618 100.137 50.4761L97.7612 49.4521ZM97.2607 51.5164C97.1956 52.4694 97.1953 53.7008 97.261 54.6179L99.8417 54.4329C99.785 53.6418 99.7847 52.5313 99.842 51.6928L97.2607 51.5164ZM97.261 54.6173C97.312 55.3331 97.4786 56.0221 97.7612 56.6779L100.137 55.6539C99.971 55.2681 99.8723 54.8634 99.8417 54.4335L97.261 54.6173ZM97.7612 56.6779C98.0532 57.3555 98.4672 57.9552 98.9973 58.4694L100.799 56.6122C100.513 56.3347 100.294 56.0179 100.137 55.6539L97.7612 56.6779ZM98.9856 58.4579C99.5135 58.983 100.142 59.3894 100.851 59.6868L101.852 57.3008C101.419 57.1191 101.078 56.8901 100.81 56.6237L98.9856 58.4579ZM100.87 59.6945C101.621 59.9957 102.442 60.1312 103.31 60.1312V57.5439C102.71 57.5439 102.225 57.4503 101.833 57.2932L100.87 59.6945ZM103.31 60.1312H107.978V57.5439H103.31V60.1312ZM107.978 45.9988H103.31V48.5861H107.978V45.9988ZM97.9189 52.2154H94.9531V54.8027H97.9189V52.2154ZM94.8934 52.2168C92.1485 52.3436 87.9726 53.0965 84.4436 55.4859C80.8397 57.926 78.0047 62.0177 78.0047 68.5385H80.5919C80.5919 62.9071 82.9751 59.6047 85.8941 57.6283C88.8879 55.6013 92.5394 54.9156 95.0128 54.8013L94.8934 52.2168ZM78.0047 68.5385C78.0047 74.1785 75.6459 77.5201 72.7546 79.5296C69.7922 81.5887 66.1757 82.306 63.7142 82.4197L63.8336 85.0042C66.5904 84.8768 70.7362 84.0834 74.2313 81.6541C77.7977 79.1753 80.5919 75.0506 80.5919 68.5385H78.0047ZM63.7739 82.4183H52.0328V85.0056H63.7739V82.4183ZM53.3265 83.712V20.3538H50.7392V83.712H53.3265ZM51.3987 19.2263L22.976 35.2118L24.2443 37.4669L52.667 21.4813L51.3987 19.2263ZM3.29364 83.712V41.8049H0.706363V83.712H3.29364ZM22.3165 36.3393V68.9065H24.9037V36.3393H22.3165ZM23.6101 67.6129H16.3574V70.2002H23.6101V67.6129ZM15.0638 68.9065V83.712H17.651V68.9065H15.0638ZM31.1204 84V51.1408H28.5331V84H31.1204ZM42.7425 44.6282V83.712H45.3297V44.6282H42.7425ZM44.0361 85.0056H52.0328V82.4183H44.0361V85.0056ZM29.8267 85.2936H34.5632V82.7064H29.8267V85.2936ZM30.3702 52.3147L35.1066 50.122L34.0197 47.7741L29.2833 49.9669L30.3702 52.3147ZM35.0999 50.1251L44.5729 45.8052L43.4994 43.4511L34.0264 47.7711L35.0999 50.1251ZM35.8568 84V48.9481H33.2695V84H35.8568ZM51.1504 21.2997L62.8915 32.2528L64.6564 30.3609L52.9153 19.4079L51.1504 21.2997ZM62.4803 31.3069V76.8953H65.0676V31.3069H62.4803ZM10.5905 46.8328L17.1345 49.9411L18.2446 47.604L11.7005 44.4957L10.5905 46.8328ZM14.5491 24.4259C15.681 23.0328 19.1551 20.1673 23.6101 20.1673V17.58C18.1185 17.58 13.9749 21.0297 12.5411 22.7943L14.5491 24.4259ZM23.6101 20.1673C28.1237 20.1673 31.3996 22.6965 32.3969 23.8599L34.3613 22.1762C32.9903 20.5767 29.0431 17.58 23.6101 17.58V20.1673ZM12.2591 23.4702L11.0593 34.4973L13.6314 34.7771L14.8312 23.75L12.2591 23.4702ZM11.0593 34.4973L9.85945 45.5243L12.4315 45.8042L13.6314 34.7771L11.0593 34.4973ZM13.271 35.5408C13.9276 34.8681 16.0758 33.2118 18.8685 32.5674L18.2867 30.0464C14.922 30.8228 12.3523 32.7781 11.4196 33.7336L13.271 35.5408ZM106.202 56.5788H111.235V53.9916H106.202V56.5788ZM106.202 52.1384H111.235V49.5511H106.202V52.1384ZM16.3574 82.4183H2V85.0056H16.3574V82.4183ZM2.07152 42.559L10.5654 46.8205L11.7256 44.508L3.23176 40.2465L2.07152 42.559ZM3.29364 41.8049C3.29364 42.4326 2.6326 42.8405 2.07152 42.559L3.23176 40.2465C2.07234 39.6648 0.706363 40.5077 0.706363 41.8049H3.29364Z" fill="white"/>
</svg>
