<svg width="271" height="85" viewBox="0 0 271 85" fill="none" xmlns="http://www.w3.org/2000/svg">
<path d="M106.739 22.6752C106.874 22.6752 106.992 22.7247 107.091 22.8235C107.19 22.9223 107.239 23.0397 107.239 23.1756V35.147C107.239 35.2829 107.19 35.4003 107.091 35.4991C106.992 35.598 106.874 35.6474 106.739 35.6474H105.238C105.102 35.6474 104.984 35.598 104.885 35.4991C104.787 35.4003 104.737 35.2829 104.737 35.147V24.9917H99.1406V35.147C99.1406 35.2829 99.0912 35.4003 98.9923 35.4991C98.8935 35.598 98.7761 35.6474 98.6402 35.6474H97.1392C97.0033 35.6474 96.8859 35.598 96.7871 35.4991C96.6882 35.4003 96.6388 35.2829 96.6388 35.147V23.1756C96.6388 23.0397 96.6882 22.9223 96.7871 22.8235C96.8859 22.7247 97.0033 22.6752 97.1392 22.6752H106.739ZM118.757 33.3309C118.893 33.3309 119.01 33.3804 119.109 33.4792C119.208 33.578 119.257 33.6954 119.257 33.8313V35.147C119.257 35.2829 119.208 35.4003 119.109 35.4991C119.01 35.598 118.893 35.6474 118.757 35.6474H110.622C110.486 35.6474 110.368 35.598 110.27 35.4991C110.171 35.4003 110.121 35.2829 110.121 35.147V23.1756C110.121 23.0397 110.171 22.9223 110.27 22.8235C110.368 22.7247 110.486 22.6752 110.622 22.6752H118.609C118.745 22.6752 118.862 22.7247 118.961 22.8235C119.06 22.9223 119.109 23.0397 119.109 23.1756V24.4913C119.109 24.6272 119.06 24.7446 118.961 24.8434C118.862 24.9423 118.745 24.9917 118.609 24.9917H112.623V27.9382H118.201C118.337 27.9382 118.454 27.9876 118.553 28.0865C118.652 28.1853 118.701 28.3027 118.701 28.4386V29.7543C118.701 29.8902 118.652 30.0076 118.553 30.1064C118.454 30.2053 118.337 30.2547 118.201 30.2547H112.623V33.3309H118.757ZM127.026 22.6752C128.521 22.6752 129.682 23.0273 130.51 23.7315C131.337 24.4357 131.751 25.4673 131.751 26.8263C131.751 28.1853 131.337 29.2231 130.51 29.9396C129.682 30.6562 128.521 31.0145 127.026 31.0145H124.061V35.147C124.061 35.2829 124.011 35.4003 123.912 35.4991C123.814 35.598 123.696 35.6474 123.56 35.6474H122.059C121.923 35.6474 121.806 35.598 121.707 35.4991C121.608 35.4003 121.559 35.2829 121.559 35.147V23.1756C121.559 23.0397 121.608 22.9223 121.707 22.8235C121.806 22.7247 121.923 22.6752 122.059 22.6752H127.026ZM124.061 28.698H126.933C127.637 28.698 128.199 28.5621 128.619 28.2903C129.039 28.0062 129.249 27.5182 129.249 26.8263C129.249 26.1345 129.039 25.6588 128.619 25.3994C128.199 25.1276 127.637 24.9917 126.933 24.9917H124.061V28.698ZM134.275 35.6474C134.139 35.6474 134.022 35.598 133.923 35.4991C133.824 35.4003 133.775 35.2829 133.775 35.147V23.1756C133.775 23.0397 133.824 22.9223 133.923 22.8235C134.022 22.7247 134.139 22.6752 134.275 22.6752H139.742C140.532 22.6752 141.193 22.7988 141.725 23.0459C142.256 23.2806 142.682 23.5833 143.003 23.9539C143.325 24.3122 143.553 24.7075 143.689 25.14C143.837 25.56 143.911 25.9553 143.911 26.326C143.911 26.6966 143.862 27.0302 143.763 27.3267C143.664 27.6108 143.541 27.8579 143.392 28.068C143.257 28.2656 143.114 28.4324 142.966 28.5683C142.83 28.7042 142.719 28.7969 142.633 28.8463C143.016 29.1057 143.368 29.4764 143.689 29.9582C144.01 30.4277 144.171 31.0268 144.171 31.7558C144.171 32.2252 144.084 32.6947 143.911 33.1642C143.738 33.6213 143.485 34.0351 143.152 34.4058C142.818 34.7764 142.398 35.0791 141.891 35.3138C141.397 35.5362 140.823 35.6474 140.168 35.6474H134.275ZM141.41 26.4186C141.41 25.9492 141.261 25.5971 140.965 25.3623C140.668 25.1152 140.199 24.9917 139.556 24.9917H136.276V27.8456H139.556C140.199 27.8456 140.668 27.7282 140.965 27.4935C141.261 27.2464 141.41 26.8881 141.41 26.4186ZM136.276 33.3309H139.705C140.384 33.3309 140.878 33.1889 141.187 32.9047C141.508 32.6082 141.669 32.2252 141.669 31.7558C141.669 31.2863 141.502 30.9033 141.169 30.6068C140.847 30.3103 140.359 30.162 139.705 30.162H136.276V33.3309ZM152.376 22.6752C152.574 22.6752 152.722 22.7308 152.821 22.842C152.92 22.9409 153.006 23.0953 153.08 23.3053L157.621 35.0173C157.633 35.0544 157.639 35.0976 157.639 35.147C157.639 35.2829 157.59 35.4003 157.491 35.4991C157.392 35.598 157.275 35.6474 157.139 35.6474H155.805C155.558 35.6474 155.385 35.598 155.286 35.4991C155.187 35.388 155.119 35.2829 155.082 35.1841L154.285 33.1271H148.429L147.632 35.1841C147.595 35.2829 147.527 35.388 147.428 35.4991C147.329 35.598 147.157 35.6474 146.909 35.6474H145.575C145.439 35.6474 145.322 35.598 145.223 35.4991C145.124 35.4003 145.075 35.2829 145.075 35.147C145.075 35.0976 145.081 35.0544 145.093 35.0173L149.634 23.3053C149.708 23.0953 149.794 22.9409 149.893 22.842C149.992 22.7308 150.14 22.6752 150.338 22.6752H152.376ZM153.395 30.8106L151.357 25.5291L149.319 30.8106H153.395ZM163.554 22.6752C162.009 22.6752 160.836 23.0335 160.033 23.7501C159.23 24.4666 158.828 25.4612 158.828 26.7337C158.828 27.6355 159.032 28.4077 159.44 29.0501C159.86 29.6802 160.471 30.1497 161.274 30.4585L158.717 35.0359C158.68 35.11 158.661 35.1779 158.661 35.2397C158.661 35.3509 158.698 35.4497 158.772 35.5362C158.859 35.6103 158.958 35.6474 159.069 35.6474H160.644C160.891 35.6474 161.07 35.5918 161.182 35.4806C161.305 35.3571 161.392 35.2459 161.441 35.147L163.869 30.8292H166.333V35.147C166.333 35.2829 166.383 35.4003 166.482 35.4991C166.58 35.598 166.698 35.6474 166.834 35.6474H168.335C168.471 35.6474 168.588 35.598 168.687 35.4991C168.786 35.4003 168.835 35.2829 168.835 35.147V23.1756C168.835 23.0397 168.786 22.9223 168.687 22.8235C168.588 22.7247 168.471 22.6752 168.335 22.6752H163.554ZM166.333 28.5127H163.646C162.942 28.5127 162.38 28.3892 161.96 28.1421C161.54 27.895 161.33 27.4255 161.33 26.7337C161.33 26.0418 161.54 25.5785 161.96 25.3438C162.38 25.1091 162.942 24.9917 163.646 24.9917H166.333V28.5127ZM118.334 47.9917V55.0337C118.334 55.5897 118.253 56.1024 118.093 56.5719C117.945 57.029 117.716 57.4305 117.407 57.7764C117.098 58.11 116.703 58.3694 116.221 58.5547C115.752 58.7401 115.202 58.8327 114.572 58.8327H114.109C113.973 58.8327 113.855 58.7833 113.756 58.6845C113.658 58.5856 113.608 58.4683 113.608 58.3324V57.0166C113.608 56.8807 113.658 56.7633 113.756 56.6645C113.855 56.5657 113.973 56.5163 114.109 56.5163H114.294C114.788 56.5163 115.165 56.368 115.424 56.0715C115.696 55.775 115.832 55.3797 115.832 54.8855V46.1756C115.832 46.0397 115.881 45.9223 115.98 45.8235C116.079 45.7247 116.196 45.6752 116.332 45.6752H124.746C124.882 45.6752 124.999 45.7247 125.098 45.8235C125.197 45.9223 125.246 46.0397 125.246 46.1756V58.147C125.246 58.2829 125.197 58.4003 125.098 58.4991C124.999 58.598 124.882 58.6474 124.746 58.6474H123.245C123.109 58.6474 122.991 58.598 122.893 58.4991C122.794 58.4003 122.744 58.2829 122.744 58.147V47.9917H118.334ZM136.767 56.3309C136.903 56.3309 137.02 56.3804 137.119 56.4792C137.218 56.578 137.267 56.6954 137.267 56.8313V58.147C137.267 58.2829 137.218 58.4003 137.119 58.4991C137.02 58.598 136.903 58.6474 136.767 58.6474H128.631C128.496 58.6474 128.378 58.598 128.279 58.4991C128.18 58.4003 128.131 58.2829 128.131 58.147V46.1756C128.131 46.0397 128.18 45.9223 128.279 45.8235C128.378 45.7247 128.496 45.6752 128.631 45.6752H136.619C136.754 45.6752 136.872 45.7247 136.971 45.8235C137.069 45.9223 137.119 46.0397 137.119 46.1756V47.4913C137.119 47.6272 137.069 47.7446 136.971 47.8434C136.872 47.9423 136.754 47.9917 136.619 47.9917H130.633V50.9382H136.211C136.347 50.9382 136.464 50.9876 136.563 51.0865C136.662 51.1853 136.711 51.3027 136.711 51.4386V52.7543C136.711 52.8902 136.662 53.0076 136.563 53.1064C136.464 53.2053 136.347 53.2547 136.211 53.2547H130.633V56.3309H136.767ZM149.409 57.8691C149.471 57.9308 149.508 57.9864 149.52 58.0359C149.532 58.0853 149.539 58.1223 149.539 58.147C149.539 58.2829 149.489 58.4003 149.39 58.4991C149.292 58.598 149.174 58.6474 149.038 58.6474H147.278C147.031 58.6474 146.833 58.5856 146.685 58.4621C146.536 58.3262 146.45 58.2459 146.425 58.2212L142.07 53.3103V58.147C142.07 58.2829 142.021 58.4003 141.922 58.4991C141.823 58.598 141.706 58.6474 141.57 58.6474H140.069C139.933 58.6474 139.816 58.598 139.717 58.4991C139.618 58.4003 139.569 58.2829 139.569 58.147V46.1756C139.569 46.0397 139.618 45.9223 139.717 45.8235C139.816 45.7247 139.933 45.6752 140.069 45.6752H141.57C141.706 45.6752 141.823 45.7247 141.922 45.8235C142.021 45.9223 142.07 46.0397 142.07 46.1756V50.5305L146.11 46.0829C146.221 45.9594 146.339 45.8606 146.462 45.7864C146.586 45.7123 146.746 45.6752 146.944 45.6752H148.649C148.785 45.6752 148.902 45.7247 149.001 45.8235C149.1 45.9223 149.149 46.0397 149.149 46.1756C149.149 46.2744 149.112 46.3671 149.038 46.4536L144.053 51.8833L149.409 57.8691ZM159.841 45.6752C159.977 45.6752 160.094 45.7247 160.193 45.8235C160.292 45.9223 160.341 46.0397 160.341 46.1756V47.4913C160.341 47.6272 160.292 47.7446 160.193 47.8434C160.094 47.9423 159.977 47.9917 159.841 47.9917H156.505V58.147C156.505 58.2829 156.456 58.4003 156.357 58.4991C156.258 58.598 156.141 58.6474 156.005 58.6474H154.504C154.368 58.6474 154.251 58.598 154.152 58.4991C154.053 58.4003 154.003 58.2829 154.003 58.147V47.9917H150.668C150.532 47.9917 150.414 47.9423 150.316 47.8434C150.217 47.7446 150.167 47.6272 150.167 47.4913V46.1756C150.167 46.0397 150.217 45.9223 150.316 45.8235C150.414 45.7247 150.532 45.6752 150.668 45.6752H159.841ZM167.657 45.6752C169.152 45.6752 170.313 46.0273 171.141 46.7315C171.969 47.4357 172.383 48.4673 172.383 49.8263C172.383 51.1853 171.969 52.2231 171.141 52.9396C170.313 53.6562 169.152 54.0145 167.657 54.0145H164.692V58.147C164.692 58.2829 164.643 58.4003 164.544 58.4991C164.445 58.598 164.328 58.6474 164.192 58.6474H162.691C162.555 58.6474 162.437 58.598 162.338 58.4991C162.24 58.4003 162.19 58.2829 162.19 58.147V46.1756C162.19 46.0397 162.24 45.9223 162.338 45.8235C162.437 45.7247 162.555 45.6752 162.691 45.6752H167.657ZM164.692 51.698H167.564C168.269 51.698 168.831 51.5621 169.251 51.2903C169.671 51.0062 169.881 50.5182 169.881 49.8263C169.881 49.1345 169.671 48.6588 169.251 48.3994C168.831 48.1276 168.269 47.9917 167.564 47.9917H164.692V51.698ZM173.961 50.512C173.998 49.8202 174.128 49.1715 174.35 48.5662C174.585 47.9485 174.925 47.4172 175.37 46.9725C175.814 46.5153 176.37 46.1571 177.037 45.8976C177.705 45.6258 178.495 45.4899 179.409 45.4899C180.311 45.4899 181.096 45.6196 181.763 45.8791C182.43 46.1385 182.986 46.4968 183.431 46.9539C183.876 47.411 184.215 47.9423 184.45 48.5476C184.685 49.153 184.821 49.8078 184.858 50.512C184.87 50.7467 184.876 51.0062 184.876 51.2903C184.889 51.5745 184.895 51.871 184.895 52.1799C184.895 52.4764 184.889 52.7667 184.876 53.0508C184.876 53.335 184.87 53.5944 184.858 53.8292C184.821 54.521 184.685 55.1758 184.45 55.7935C184.228 56.3989 183.894 56.9301 183.449 57.3872C183.005 57.832 182.442 58.1841 181.763 58.4436C181.096 58.703 180.311 58.8327 179.409 58.8327C178.495 58.8327 177.705 58.703 177.037 58.4436C176.37 58.1841 175.814 57.832 175.37 57.3872C174.925 56.9301 174.585 56.3989 174.35 55.7935C174.128 55.1758 173.998 54.521 173.961 53.8292C173.949 53.5944 173.936 53.335 173.924 53.0508C173.924 52.7667 173.924 52.4764 173.924 52.1799C173.924 51.871 173.924 51.5745 173.924 51.2903C173.936 51.0062 173.949 50.7467 173.961 50.512ZM182.356 50.6047C182.307 49.7151 182.016 49.0295 181.485 48.5476C180.966 48.0535 180.274 47.8064 179.409 47.8064C178.545 47.8064 177.847 48.0535 177.315 48.5476C176.796 49.0295 176.512 49.7151 176.463 50.6047C176.438 51.0741 176.426 51.5992 176.426 52.1799C176.426 52.7482 176.438 53.267 176.463 53.7365C176.512 54.626 176.796 55.3117 177.315 55.7935C177.847 56.2753 178.545 56.5163 179.409 56.5163C180.274 56.5163 180.966 56.2753 181.485 55.7935C182.016 55.3117 182.307 54.626 182.356 53.7365C182.381 53.267 182.393 52.7482 182.393 52.1799C182.393 51.5992 182.381 51.0741 182.356 50.6047ZM195.278 54.5334C195.303 54.3728 195.364 54.2554 195.463 54.1813C195.574 54.0948 195.692 54.0515 195.815 54.0515H197.316C197.452 54.0515 197.57 54.101 197.668 54.1998C197.78 54.2863 197.829 54.4037 197.817 54.5519C197.78 55.0584 197.65 55.565 197.428 56.0715C197.218 56.578 196.89 57.0351 196.445 57.4428C196.001 57.8505 195.439 58.1841 194.759 58.4436C194.08 58.703 193.258 58.8327 192.294 58.8327C191.442 58.8327 190.688 58.7092 190.033 58.4621C189.379 58.2026 188.823 57.8505 188.366 57.4058C187.908 56.9487 187.55 56.4051 187.291 55.775C187.044 55.1449 186.895 54.4592 186.846 53.718C186.821 53.2485 186.809 52.7296 186.809 52.1613C186.809 51.593 186.821 51.0741 186.846 50.6047C186.895 49.8634 187.044 49.1777 187.291 48.5476C187.55 47.9176 187.908 47.3802 188.366 46.9354C188.823 46.4783 189.379 46.1262 190.033 45.8791C190.688 45.6196 191.442 45.4899 192.294 45.4899C193.258 45.4899 194.08 45.6196 194.759 45.8791C195.439 46.1385 196.001 46.4721 196.445 46.8798C196.89 47.2875 197.218 47.7508 197.428 48.2697C197.65 48.7762 197.78 49.2766 197.817 49.7707C197.829 49.919 197.78 50.0425 197.668 50.1414C197.57 50.2279 197.452 50.2711 197.316 50.2711H195.815C195.692 50.2711 195.574 50.234 195.463 50.1599C195.352 50.0734 195.284 49.9499 195.259 49.7893C195.222 49.5422 195.136 49.3013 195 49.0665C194.864 48.8318 194.679 48.6218 194.444 48.4365C194.209 48.2511 193.913 48.1029 193.554 47.9917C193.196 47.8682 192.776 47.8064 192.294 47.8064C191.812 47.8064 191.392 47.8805 191.034 48.0288C190.676 48.177 190.373 48.3747 190.126 48.6218C189.891 48.8689 189.706 49.1654 189.57 49.5113C189.447 49.8572 189.372 50.2217 189.348 50.6047C189.323 51.0741 189.311 51.593 189.311 52.1613C189.311 52.7296 189.323 53.2485 189.348 53.718C189.372 54.1133 189.447 54.484 189.57 54.8299C189.706 55.1634 189.891 55.4538 190.126 55.7009C190.373 55.948 190.676 56.1456 191.034 56.2939C191.392 56.4421 191.812 56.5163 192.294 56.5163C192.776 56.5163 193.196 56.4607 193.554 56.3495C193.913 56.2259 194.209 56.0715 194.444 55.8862C194.691 55.7009 194.883 55.4908 195.018 55.2561C195.154 55.0214 195.241 54.7805 195.278 54.5334ZM208.613 56.3309C208.749 56.3309 208.866 56.3804 208.965 56.4792C209.064 56.578 209.114 56.6954 209.114 56.8313V58.147C209.114 58.2829 209.064 58.4003 208.965 58.4991C208.866 58.598 208.749 58.6474 208.613 58.6474H200.478C200.342 58.6474 200.225 58.598 200.126 58.4991C200.027 58.4003 199.977 58.2829 199.977 58.147V46.1756C199.977 46.0397 200.027 45.9223 200.126 45.8235C200.225 45.7247 200.342 45.6752 200.478 45.6752H208.465C208.601 45.6752 208.718 45.7247 208.817 45.8235C208.916 45.9223 208.965 46.0397 208.965 46.1756V47.4913C208.965 47.6272 208.916 47.7446 208.817 47.8434C208.718 47.9423 208.601 47.9917 208.465 47.9917H202.479V50.9382H208.057C208.193 50.9382 208.31 50.9876 208.409 51.0865C208.508 51.1853 208.558 51.3027 208.558 51.4386V52.7543C208.558 52.8902 208.508 53.0076 208.409 53.1064C208.31 53.2053 208.193 53.2547 208.057 53.2547H202.479V56.3309H208.613ZM220.051 45.6752C220.187 45.6752 220.304 45.7247 220.403 45.8235C220.502 45.9223 220.551 46.0397 220.551 46.1756V47.4913C220.551 47.6272 220.502 47.7446 220.403 47.8434C220.304 47.9423 220.187 47.9917 220.051 47.9917H216.715V58.147C216.715 58.2829 216.666 58.4003 216.567 58.4991C216.468 58.598 216.351 58.6474 216.215 58.6474H214.714C214.578 58.6474 214.46 58.598 214.361 58.4991C214.263 58.4003 214.213 58.2829 214.213 58.147V47.9917H210.878C210.742 47.9917 210.624 47.9423 210.525 47.8434C210.427 47.7446 210.377 47.6272 210.377 47.4913V46.1756C210.377 46.0397 210.427 45.9223 210.525 45.8235C210.624 45.7247 210.742 45.6752 210.878 45.6752H220.051ZM231.036 56.3309C231.172 56.3309 231.289 56.3804 231.388 56.4792C231.487 56.578 231.536 56.6954 231.536 56.8313V58.147C231.536 58.2829 231.487 58.4003 231.388 58.4991C231.289 58.598 231.172 58.6474 231.036 58.6474H222.9C222.764 58.6474 222.647 58.598 222.548 58.4991C222.449 58.4003 222.4 58.2829 222.4 58.147V46.1756C222.4 46.0397 222.449 45.9223 222.548 45.8235C222.647 45.7247 222.764 45.6752 222.9 45.6752H230.887C231.023 45.6752 231.141 45.7247 231.24 45.8235C231.338 45.9223 231.388 46.0397 231.388 46.1756V47.4913C231.388 47.6272 231.338 47.7446 231.24 47.8434C231.141 47.9423 231.023 47.9917 230.887 47.9917H224.902V50.9382H230.48C230.616 50.9382 230.733 50.9876 230.832 51.0865C230.931 51.1853 230.98 51.3027 230.98 51.4386V52.7543C230.98 52.8902 230.931 53.0076 230.832 53.1064C230.733 53.2053 230.616 53.2547 230.48 53.2547H224.902V56.3309H231.036ZM234.338 58.6474C234.202 58.6474 234.085 58.598 233.986 58.4991C233.887 58.4003 233.837 58.2829 233.837 58.147V46.1756C233.837 46.0397 233.887 45.9223 233.986 45.8235C234.085 45.7247 234.202 45.6752 234.338 45.6752H239.805C240.595 45.6752 241.256 45.7988 241.788 46.0459C242.319 46.2806 242.745 46.5833 243.066 46.9539C243.387 47.3122 243.616 47.7075 243.752 48.14C243.9 48.56 243.974 48.9553 243.974 49.326C243.974 49.6966 243.925 50.0302 243.826 50.3267C243.727 50.6108 243.604 50.8579 243.455 51.068C243.32 51.2656 243.177 51.4324 243.029 51.5683C242.893 51.7042 242.782 51.7969 242.696 51.8463C243.079 52.1057 243.431 52.4764 243.752 52.9582C244.073 53.4277 244.234 54.0268 244.234 54.7558C244.234 55.2252 244.147 55.6947 243.974 56.1642C243.801 56.6213 243.548 57.0351 243.215 57.4058C242.881 57.7764 242.461 58.0791 241.954 58.3138C241.46 58.5362 240.886 58.6474 240.231 58.6474H234.338ZM241.473 49.4186C241.473 48.9492 241.324 48.5971 241.028 48.3623C240.731 48.1152 240.262 47.9917 239.619 47.9917H236.339V50.8456H239.619C240.262 50.8456 240.731 50.7282 241.028 50.4935C241.324 50.2464 241.473 49.8881 241.473 49.4186ZM236.339 56.3309H239.768C240.447 56.3309 240.941 56.1889 241.25 55.9047C241.571 55.6082 241.732 55.2252 241.732 54.7558C241.732 54.2863 241.565 53.9033 241.232 53.6068C240.91 53.3103 240.422 53.162 239.768 53.162H236.339V56.3309ZM252.439 45.6752C252.637 45.6752 252.785 45.7308 252.884 45.842C252.983 45.9409 253.069 46.0953 253.143 46.3053L257.684 58.0173C257.696 58.0544 257.702 58.0976 257.702 58.147C257.702 58.2829 257.653 58.4003 257.554 58.4991C257.455 58.598 257.338 58.6474 257.202 58.6474H255.868C255.62 58.6474 255.448 58.598 255.349 58.4991C255.25 58.388 255.182 58.2829 255.145 58.1841L254.348 56.1271H248.492L247.695 58.1841C247.658 58.2829 247.59 58.388 247.491 58.4991C247.392 58.598 247.219 58.6474 246.972 58.6474H245.638C245.502 58.6474 245.385 58.598 245.286 58.4991C245.187 58.4003 245.138 58.2829 245.138 58.147C245.138 58.0976 245.144 58.0544 245.156 58.0173L249.697 46.3053C249.771 46.0953 249.857 45.9409 249.956 45.842C250.055 45.7308 250.203 45.6752 250.401 45.6752H252.439ZM253.458 53.8106L251.42 48.5291L249.382 53.8106H253.458ZM263.617 45.6752C262.072 45.6752 260.899 46.0335 260.096 46.7501C259.293 47.4666 258.891 48.4612 258.891 49.7337C258.891 50.6355 259.095 51.4077 259.503 52.0501C259.923 52.6802 260.534 53.1497 261.337 53.4585L258.78 58.0359C258.743 58.11 258.724 58.1779 258.724 58.2397C258.724 58.3509 258.761 58.4497 258.835 58.5362C258.922 58.6103 259.021 58.6474 259.132 58.6474H260.707C260.954 58.6474 261.133 58.5918 261.245 58.4806C261.368 58.3571 261.455 58.2459 261.504 58.147L263.932 53.8292H266.396V58.147C266.396 58.2829 266.446 58.4003 266.545 58.4991C266.643 58.598 266.761 58.6474 266.897 58.6474H268.398C268.534 58.6474 268.651 58.598 268.75 58.4991C268.849 58.4003 268.898 58.2829 268.898 58.147V46.1756C268.898 46.0397 268.849 45.9223 268.75 45.8235C268.651 45.7247 268.534 45.6752 268.398 45.6752H263.617ZM266.396 51.5127H263.709C263.005 51.5127 262.443 51.3892 262.023 51.1421C261.603 50.895 261.393 50.4255 261.393 49.7337C261.393 49.0418 261.603 48.5785 262.023 48.3438C262.443 48.1091 263.005 47.9917 263.709 47.9917H266.396V51.5127ZM106.479 80.8691C106.541 80.9308 106.578 80.9864 106.59 81.0359C106.603 81.0853 106.609 81.1223 106.609 81.147C106.609 81.2829 106.559 81.4003 106.461 81.4991C106.362 81.598 106.244 81.6474 106.109 81.6474H104.348C104.101 81.6474 103.903 81.5856 103.755 81.4621C103.607 81.3262 103.52 81.2459 103.496 81.2212L99.1406 76.3103V81.147C99.1406 81.2829 99.0912 81.4003 98.9923 81.4991C98.8935 81.598 98.7761 81.6474 98.6402 81.6474H97.1392C97.0033 81.6474 96.8859 81.598 96.7871 81.4991C96.6882 81.4003 96.6388 81.2829 96.6388 81.147V69.1756C96.6388 69.0397 96.6882 68.9223 96.7871 68.8235C96.8859 68.7247 97.0033 68.6752 97.1392 68.6752H98.6402C98.7761 68.6752 98.8935 68.7247 98.9923 68.8235C99.0912 68.9223 99.1406 69.0397 99.1406 69.1756V73.5305L103.181 69.0829C103.292 68.9594 103.409 68.8606 103.533 68.7864C103.656 68.7123 103.817 68.6752 104.014 68.6752H105.719C105.855 68.6752 105.973 68.7247 106.071 68.8235C106.17 68.9223 106.22 69.0397 106.22 69.1756C106.22 69.2744 106.183 69.3671 106.109 69.4536L101.123 74.8833L106.479 80.8691ZM107.034 73.512C107.071 72.8202 107.201 72.1715 107.424 71.5662C107.658 70.9485 107.998 70.4172 108.443 69.9725C108.888 69.5153 109.443 69.1571 110.111 68.8976C110.778 68.6258 111.568 68.4899 112.483 68.4899C113.385 68.4899 114.169 68.6196 114.836 68.8791C115.503 69.1385 116.059 69.4968 116.504 69.9539C116.949 70.411 117.289 70.9423 117.523 71.5476C117.758 72.153 117.894 72.8078 117.931 73.512C117.943 73.7467 117.95 74.0062 117.95 74.2903C117.962 74.5745 117.968 74.871 117.968 75.1799C117.968 75.4764 117.962 75.7667 117.95 76.0508C117.95 76.335 117.943 76.5944 117.931 76.8292C117.894 77.521 117.758 78.1758 117.523 78.7935C117.301 79.3989 116.967 79.9301 116.523 80.3872C116.078 80.832 115.516 81.1841 114.836 81.4436C114.169 81.703 113.385 81.8327 112.483 81.8327C111.568 81.8327 110.778 81.703 110.111 81.4436C109.443 81.1841 108.888 80.832 108.443 80.3872C107.998 79.9301 107.658 79.3989 107.424 78.7935C107.201 78.1758 107.071 77.521 107.034 76.8292C107.022 76.5944 107.01 76.335 106.997 76.0508C106.997 75.7667 106.997 75.4764 106.997 75.1799C106.997 74.871 106.997 74.5745 106.997 74.2903C107.01 74.0062 107.022 73.7467 107.034 73.512ZM115.429 73.6047C115.38 72.7151 115.089 72.0295 114.558 71.5476C114.039 71.0535 113.347 70.8064 112.483 70.8064C111.618 70.8064 110.92 71.0535 110.389 71.5476C109.87 72.0295 109.586 72.7151 109.536 73.6047C109.511 74.0741 109.499 74.5992 109.499 75.1799C109.499 75.7482 109.511 76.267 109.536 76.7365C109.586 77.626 109.87 78.3117 110.389 78.7935C110.92 79.2753 111.618 79.5163 112.483 79.5163C113.347 79.5163 114.039 79.2753 114.558 78.7935C115.089 78.3117 115.38 77.626 115.429 76.7365C115.454 76.267 115.466 75.7482 115.466 75.1799C115.466 74.5992 115.454 74.0741 115.429 73.6047ZM126.461 75.291L129.982 69.1756C130.031 69.1138 130.112 69.015 130.223 68.8791C130.346 68.7432 130.532 68.6752 130.779 68.6752H132.039C132.175 68.6752 132.292 68.7247 132.391 68.8235C132.49 68.9223 132.539 69.0397 132.539 69.1756V81.147C132.539 81.2829 132.49 81.4003 132.391 81.4991C132.292 81.598 132.175 81.6474 132.039 81.6474H130.538C130.402 81.6474 130.285 81.598 130.186 81.4991C130.087 81.4003 130.038 81.2829 130.038 81.147V73.9012L127.628 78.0708C127.567 78.1696 127.48 78.2746 127.369 78.3858C127.258 78.4847 127.116 78.5341 126.943 78.5341H125.979C125.806 78.5341 125.664 78.4847 125.553 78.3858C125.442 78.2746 125.355 78.1696 125.293 78.0708L122.884 73.9012V81.147C122.884 81.2829 122.835 81.4003 122.736 81.4991C122.637 81.598 122.52 81.6474 122.384 81.6474H120.883C120.747 81.6474 120.63 81.598 120.531 81.4991C120.432 81.4003 120.383 81.2829 120.383 81.147V69.1756C120.383 69.0397 120.432 68.9223 120.531 68.8235C120.63 68.7247 120.747 68.6752 120.883 68.6752H122.143C122.39 68.6752 122.569 68.7432 122.68 68.8791C122.804 69.015 122.89 69.1138 122.94 69.1756L126.461 75.291ZM145.521 68.6752C145.657 68.6752 145.774 68.7247 145.873 68.8235C145.972 68.9223 146.021 69.0397 146.021 69.1756V81.147C146.021 81.2829 145.972 81.4003 145.873 81.4991C145.774 81.598 145.657 81.6474 145.521 81.6474H144.02C143.884 81.6474 143.767 81.598 143.668 81.4991C143.569 81.4003 143.52 81.2829 143.52 81.147V70.9917H137.923V81.147C137.923 81.2829 137.874 81.4003 137.775 81.4991C137.676 81.598 137.559 81.6474 137.423 81.6474H135.922C135.786 81.6474 135.668 81.598 135.57 81.4991C135.471 81.4003 135.421 81.2829 135.421 81.147V69.1756C135.421 69.0397 135.471 68.9223 135.57 68.8235C135.668 68.7247 135.786 68.6752 135.922 68.6752H145.521ZM154.982 68.6752C155.18 68.6752 155.328 68.7308 155.427 68.842C155.526 68.9409 155.612 69.0953 155.686 69.3053L160.227 81.0173C160.239 81.0544 160.245 81.0976 160.245 81.147C160.245 81.2829 160.196 81.4003 160.097 81.4991C159.998 81.598 159.881 81.6474 159.745 81.6474H158.411C158.164 81.6474 157.991 81.598 157.892 81.4991C157.793 81.388 157.725 81.2829 157.688 81.1841L156.891 79.1271H151.035L150.238 81.1841C150.201 81.2829 150.133 81.388 150.034 81.4991C149.935 81.598 149.763 81.6474 149.515 81.6474H148.181C148.045 81.6474 147.928 81.598 147.829 81.4991C147.73 81.4003 147.681 81.2829 147.681 81.147C147.681 81.0976 147.687 81.0544 147.699 81.0173L152.24 69.3053C152.314 69.0953 152.4 68.9409 152.499 68.842C152.598 68.7308 152.746 68.6752 152.944 68.6752H154.982ZM156.002 76.8106L153.963 71.5291L151.925 76.8106H156.002ZM172.016 68.6752C172.152 68.6752 172.269 68.7247 172.368 68.8235C172.467 68.9223 172.516 69.0397 172.516 69.1756V81.147C172.516 81.2829 172.467 81.4003 172.368 81.4991C172.269 81.598 172.152 81.6474 172.016 81.6474H170.515C170.379 81.6474 170.261 81.598 170.162 81.4991C170.064 81.4003 170.014 81.2829 170.014 81.147V76.2547H164.418V81.147C164.418 81.2829 164.368 81.4003 164.269 81.4991C164.171 81.598 164.053 81.6474 163.917 81.6474H162.416C162.28 81.6474 162.163 81.6042 162.064 81.5177C161.965 81.4188 161.916 81.2953 161.916 81.147V69.1756C161.916 69.0397 161.965 68.9223 162.064 68.8235C162.163 68.7247 162.28 68.6752 162.416 68.6752H163.917C164.053 68.6752 164.171 68.7247 164.269 68.8235C164.368 68.9223 164.418 69.0397 164.418 69.1756V73.9382H170.014V69.1756C170.014 69.0397 170.064 68.9223 170.162 68.8235C170.261 68.7247 170.379 68.6752 170.515 68.6752H172.016ZM177.196 81.6474C177.406 81.6474 177.567 81.5918 177.678 81.4806C177.789 81.3694 177.869 81.2829 177.919 81.2212L183.108 73.512V81.147C183.108 81.2829 183.157 81.4003 183.256 81.4991C183.355 81.598 183.472 81.6474 183.608 81.6474H185.109C185.245 81.6474 185.362 81.598 185.461 81.4991C185.56 81.4003 185.609 81.2829 185.609 81.147V69.1756C185.609 69.0397 185.56 68.9223 185.461 68.8235C185.362 68.7247 185.245 68.6752 185.109 68.6752H183.812C183.602 68.6752 183.441 68.7308 183.33 68.842C183.219 68.9532 183.138 69.0397 183.089 69.1015L177.9 76.8106V69.1756C177.9 69.0397 177.851 68.9223 177.752 68.8235C177.653 68.7247 177.536 68.6752 177.4 68.6752H175.899C175.763 68.6752 175.645 68.7247 175.547 68.8235C175.448 68.9223 175.398 69.0397 175.398 69.1756V81.147C175.398 81.2829 175.448 81.4003 175.547 81.4991C175.645 81.598 175.763 81.6474 175.899 81.6474H177.196ZM192.745 68.6752C191.2 68.6752 190.027 69.0335 189.224 69.7501C188.421 70.4666 188.019 71.4612 188.019 72.7337C188.019 73.6355 188.223 74.4077 188.631 75.0501C189.051 75.6802 189.662 76.1497 190.465 76.4585L187.908 81.0359C187.871 81.11 187.852 81.1779 187.852 81.2397C187.852 81.3509 187.889 81.4497 187.963 81.5362C188.05 81.6103 188.149 81.6474 188.26 81.6474H189.835C190.082 81.6474 190.261 81.5918 190.373 81.4806C190.496 81.3571 190.583 81.2459 190.632 81.147L193.06 76.8292H195.524V81.147C195.524 81.2829 195.574 81.4003 195.673 81.4991C195.771 81.598 195.889 81.6474 196.025 81.6474H197.526C197.662 81.6474 197.779 81.598 197.878 81.4991C197.977 81.4003 198.026 81.2829 198.026 81.147V69.1756C198.026 69.0397 197.977 68.9223 197.878 68.8235C197.779 68.7247 197.662 68.6752 197.526 68.6752H192.745ZM195.524 74.5127H192.837C192.133 74.5127 191.571 74.3892 191.151 74.1421C190.731 73.895 190.521 73.4255 190.521 72.7337C190.521 72.0418 190.731 71.5785 191.151 71.3438C191.571 71.1091 192.133 70.9917 192.837 70.9917H195.524V74.5127Z" fill="#003399"/>
<path d="M23.6412 14.7023C24.2806 15.051 25.0816 14.8154 25.4304 14.176C25.7792 13.5366 25.5436 12.7355 24.9041 12.3868L23.6412 14.7023ZM22.4781 0.543195C21.7717 0.365385 21.055 0.793812 20.8772 1.50011C20.6994 2.20641 21.1278 2.92313 21.8341 3.10094L22.4781 0.543195ZM100.356 47.0162L100.847 48.2401L100.856 48.2363L100.866 48.2323L100.356 47.0162ZM98.9165 47.9442L99.8347 48.8908L99.8407 48.885L99.8466 48.8791L98.9165 47.9442ZM97.9773 49.3053L96.7662 48.7834L97.9773 49.3053ZM97.5834 50.9293L96.2679 50.8356L96.2677 50.8394L97.5834 50.9293ZM97.5834 53.8209L98.8988 53.7272L98.8988 53.7266L97.5834 53.8209ZM98.9165 56.806L99.8466 55.8711L99.8407 55.8652L99.8347 55.8594L98.9165 56.806ZM100.356 57.7495L99.8457 58.9657L99.8552 58.9697L99.8647 58.9735L100.356 57.7495ZM96.9573 54.1335C97.6857 54.1335 98.2761 53.543 98.2761 52.8147C98.2761 52.0864 97.6857 51.4959 96.9573 51.4959V54.1335ZM94.0212 52.8147V51.4959H93.9908L93.9603 51.4973L94.0212 52.8147ZM63.1546 82.7149V84.0336H63.1851L63.2155 84.0322L63.1546 82.7149ZM51.5313 19.9919L52.4308 19.0275L51.7255 18.3696L50.8848 18.8424L51.5313 19.9919ZM23.3935 35.8172L22.747 34.6677L22.0747 35.0458V35.8172H23.3935ZM2 82.7149H0.681225V84.0336H2V82.7149ZM16.9664 49.317C17.6243 49.6294 18.411 49.3494 18.7235 48.6915C19.036 48.0336 18.756 47.247 18.0981 46.9345L16.9664 49.317ZM23.3935 68.0578V69.3766H24.7122V68.0578H23.3935ZM16.2135 68.0578V66.7391H14.8947V68.0578H16.2135ZM16.2135 82.7149V84.0336H17.5322V82.7149H16.2135ZM29.5478 83H28.229V84.3188H29.5478V83ZM29.5478 50.4702L28.9937 49.2735L28.229 49.6275V50.4702H29.5478ZM43.6147 44.0229H44.9335V41.972L43.0675 42.823L43.6147 44.0229ZM43.6147 82.7149H42.2959V84.0336H43.6147V82.7149ZM34.2367 83V84.3188C34.9651 84.3188 35.5555 83.7283 35.5555 83H34.2367ZM34.2367 48.2995L33.6895 47.0996L33.6827 47.1027L34.2367 48.2995ZM63.1546 30.8351H64.4734C64.4734 30.4695 64.3216 30.1202 64.0542 29.8708L63.1546 30.8351ZM61.8359 75.9665C61.8359 76.6949 62.4263 77.2853 63.1546 77.2853C63.883 77.2853 64.4734 76.6949 64.4734 75.9665H61.8359ZM11.0538 45.0486L10.4624 46.2273C10.4709 46.2316 10.4794 46.2357 10.488 46.2398L11.0538 45.0486ZM13.4294 23.2155L12.4059 22.3839C12.2457 22.5811 12.1458 22.8203 12.1183 23.0729L13.4294 23.2155ZM32.0632 23.4877C32.5372 24.0406 33.3697 24.1047 33.9227 23.6307C34.4757 23.1567 34.5398 22.3242 34.0658 21.7712L32.0632 23.4877ZM12.2416 34.1321L10.9306 33.9894L12.2416 34.1321ZM18.708 32.1201C19.4177 31.9563 19.8602 31.2483 19.6964 30.5386C19.5327 29.8289 18.8246 29.3863 18.1149 29.5501L18.708 32.1201ZM110.14 55.8918C110.868 55.8918 111.458 55.3014 111.458 54.5731C111.458 53.8447 110.868 53.2543 110.14 53.2543V55.8918ZM110.14 51.4959C110.868 51.4959 111.458 50.9055 111.458 50.1772C111.458 49.4488 110.868 48.8584 110.14 48.8584V51.4959ZM2.6643 40.8394L3.25569 39.6607L2.6643 40.8394ZM24.9041 12.3868C24.5173 12.1757 23.9028 11.7514 23.4041 11.2183C22.8821 10.6602 22.6608 10.1724 22.6608 9.81464H20.0233C20.0233 11.1619 20.7789 12.2727 21.4779 13.02C22.2003 13.7923 23.0511 14.3804 23.6412 14.7023L24.9041 12.3868ZM22.6608 9.81464C22.6608 9.30757 23.0242 8.73596 23.8141 7.80249C24.1497 7.40586 24.582 6.9151 24.9086 6.43014C25.2329 5.94861 25.5914 5.2804 25.5914 4.48626H22.9539C22.9539 4.48227 22.955 4.51481 22.9218 4.59806C22.8874 4.68432 22.8255 4.80143 22.7209 4.9568C22.498 5.28775 22.1977 5.62955 21.8006 6.09878C21.1252 6.89704 20.0233 8.19037 20.0233 9.81464H22.6608ZM25.5914 4.48626C25.5914 1.90271 23.4533 0.788703 22.4781 0.543195L21.8341 3.10094C21.9889 3.13991 22.3027 3.27595 22.5574 3.52476C22.783 3.74506 22.9539 4.03944 22.9539 4.48626H25.5914ZM102.295 45.3416C101.424 45.3416 100.6 45.4838 99.8457 45.8L100.866 48.2323C101.243 48.0742 101.711 47.9792 102.295 47.9792V45.3416ZM99.8647 45.7922C99.1509 46.0785 98.5175 46.481 97.9864 47.0093L99.8466 48.8791C100.103 48.6237 100.429 48.4075 100.847 48.2401L99.8647 45.7922ZM97.9983 46.9976C97.47 47.51 97.0573 48.1079 96.7662 48.7834L99.1884 49.8272C99.3417 49.4715 99.555 49.162 99.8347 48.8908L97.9983 46.9976ZM96.7662 48.7834C96.4847 49.4366 96.3187 50.1228 96.268 50.8356L98.8988 51.023C98.9289 50.6016 99.0255 50.2052 99.1884 49.8272L96.7662 48.7834ZM96.2677 50.8394C96.2031 51.7846 96.2028 53.0054 96.268 53.9151L98.8988 53.7266C98.8428 52.9453 98.8425 51.8477 98.8991 51.0192L96.2677 50.8394ZM96.268 53.9146C96.3187 54.6274 96.4847 55.3137 96.7662 55.9669L99.1884 54.923C99.0255 54.5451 98.9289 54.1486 98.8988 53.7272L96.268 53.9146ZM96.7662 55.9669C97.0573 56.6423 97.47 57.2402 97.9983 57.7527L99.8347 55.8594C99.555 55.5882 99.3417 55.2787 99.1884 54.923L96.7662 55.9669ZM97.9864 57.741C98.5128 58.2646 99.1396 58.6696 99.8457 58.9657L100.866 56.5334C100.441 56.3551 100.108 56.1311 99.8466 55.8711L97.9864 57.741ZM99.8647 58.9735C100.613 59.2738 101.431 59.4086 102.295 59.4086V56.771C101.704 56.771 101.229 56.6789 100.847 56.5255L99.8647 58.9735ZM102.295 59.4086H106.916V56.771H102.295V59.4086ZM106.916 45.3416H102.295V47.9792H106.916V45.3416ZM96.9573 51.4959H94.0212V54.1335H96.9573V51.4959ZM93.9603 51.4973C91.239 51.6231 87.0972 52.3694 83.5957 54.7402C80.0179 57.1627 77.2046 61.225 77.2046 67.6935H79.8421C79.8421 62.1317 82.1948 58.874 85.0744 56.9242C88.0303 54.9229 91.6375 54.245 94.0821 54.1321L93.9603 51.4973ZM77.2046 67.6935C77.2046 73.2642 74.8759 76.5606 72.0236 78.5432C69.0986 80.5761 65.5262 81.2851 63.0938 81.3975L63.2155 84.0322C65.949 83.9059 70.061 83.1194 73.5289 80.7089C77.0695 78.248 79.8421 74.1532 79.8421 67.6935H77.2046ZM63.1546 81.3961H51.5313V84.0336H63.1546V81.3961ZM52.85 82.7149V19.9919H50.2125V82.7149H52.85ZM50.8848 18.8424L22.747 34.6677L24.0399 36.9666L52.1777 21.1413L50.8848 18.8424ZM3.31877 82.7149V41.2494H0.681225V82.7149H3.31877ZM22.0747 35.8172V68.0578H24.7122V35.8172H22.0747ZM23.3935 66.7391H16.2135V69.3766H23.3935V66.7391ZM14.8947 68.0578V82.7149H17.5322V68.0578H14.8947ZM30.8665 83V50.4702H28.229V83H30.8665ZM42.2959 44.0229V82.7149H44.9335V44.0229H42.2959ZM43.6147 84.0336H51.5313V81.3961H43.6147V84.0336ZM29.5478 84.3188H34.2367V81.6812H29.5478V84.3188ZM30.1018 51.667L34.7908 49.4962L33.6827 47.1027L28.9937 49.2735L30.1018 51.667ZM34.7839 49.4994L44.1619 45.2228L43.0675 42.823L33.6895 47.0996L34.7839 49.4994ZM35.5555 83V48.2995H32.918V83H35.5555ZM50.6317 20.9562L62.255 31.7994L64.0542 29.8708L52.4308 19.0275L50.6317 20.9562ZM61.8359 30.8351V75.9665H64.4734V30.8351H61.8359ZM10.488 46.2398L16.9664 49.317L18.0981 46.9345L11.6196 43.8574L10.488 46.2398ZM14.4529 24.0471C15.5689 22.6736 18.9984 19.8453 23.3935 19.8453V17.2078C17.9417 17.2078 13.8297 20.6315 12.4059 22.3839L14.4529 24.0471ZM23.3935 19.8453C27.8483 19.8453 31.0814 22.3423 32.0632 23.4877L34.0658 21.7712C32.7031 20.1813 28.7855 17.2078 23.3935 17.2078V19.8453ZM12.1183 23.0729L10.9306 33.9894L13.5526 34.2747L14.7404 23.3582L12.1183 23.0729ZM10.9306 33.9894L9.74278 44.9059L12.3649 45.1912L13.5526 34.2747L10.9306 33.9894ZM13.1853 35.0532C13.8313 34.3915 15.9517 32.7562 18.708 32.1201L18.1149 29.5501C14.7755 30.3207 12.2253 32.2608 11.2979 33.2109L13.1853 35.0532ZM105.158 55.8918H110.14V53.2543H105.158V55.8918ZM105.158 51.4959H110.14V48.8584H105.158V51.4959ZM16.2135 81.3961H2V84.0336H16.2135V81.3961ZM2.07291 42.0182L10.4624 46.2273L11.6452 43.8698L3.25569 39.6607L2.07291 42.0182ZM3.31877 41.2494C3.31877 41.8893 2.64488 42.3051 2.07291 42.0182L3.25569 39.6607C2.07376 39.0677 0.681225 39.927 0.681225 41.2494H3.31877Z" fill="#003399"/>
</svg>
